<?xml version="1.0" encoding="UTF-8"?>
<svg xmlns="http://www.w3.org/2000/svg" xmlns:xlink="http://www.w3.org/1999/xlink" width="1500.96" height="842.88" viewBox="0 0 1500.96 842.88">
<path fill-rule="nonzero" fill="rgb(100%, 100%, 100%)" fill-opacity="1" d="M 216.777344 378.714844 L 104.410156 378.714844 C 88.765625 378.714844 76.039062 391.441406 76.039062 407.085938 L 76.039062 451.261719 C 76.039062 466.90625 88.765625 479.632812 104.410156 479.632812 L 216.777344 479.632812 C 218.433594 479.632812 219.78125 478.285156 219.78125 476.628906 L 219.78125 461.765625 C 219.78125 460.109375 218.433594 458.761719 216.777344 458.761719 L 107.253906 458.761719 C 103.671875 458.761719 100.761719 455.847656 100.761719 452.269531 L 100.761719 406.066406 C 100.761719 402.492188 103.667969 399.578125 107.242188 399.574219 L 216.78125 399.386719 C 218.4375 399.382812 219.78125 398.035156 219.78125 396.378906 L 219.78125 381.71875 C 219.78125 380.0625 218.433594 378.714844 216.777344 378.714844 "/>
<path fill-rule="nonzero" fill="rgb(100%, 100%, 100%)" fill-opacity="1" d="M 383.894531 459.300781 L 276.523438 459.300781 C 272.128906 459.300781 268.554688 455.722656 268.554688 451.328125 L 268.554688 382.125 C 268.554688 380.246094 267.023438 378.714844 265.140625 378.714844 L 248.863281 378.714844 C 246.980469 378.714844 245.453125 380.246094 245.453125 382.125 L 245.453125 454.066406 C 245.453125 468.683594 257.34375 480.578125 271.964844 480.578125 L 383.894531 480.578125 C 385.773438 480.578125 387.304688 479.046875 387.304688 477.167969 L 387.304688 462.710938 C 387.304688 460.832031 385.773438 459.300781 383.894531 459.300781 "/>
<path fill-rule="nonzero" fill="rgb(100%, 100%, 100%)" fill-opacity="1" d="M 560.027344 378.714844 L 516.871094 378.714844 C 513.460938 378.714844 510.257812 380.042969 507.84375 382.453125 L 415.746094 474.550781 C 414.835938 475.460938 414.566406 476.820312 415.058594 478.011719 C 415.550781 479.199219 416.703125 479.972656 417.992188 479.972656 L 440.847656 479.972656 C 441.691406 479.972656 442.515625 479.625 443.105469 479.023438 L 523.03125 398.03125 L 540.300781 398.03125 L 540.105469 476.113281 C 540.101562 476.960938 540.433594 477.761719 541.03125 478.363281 C 541.632812 478.964844 542.429688 479.296875 543.28125 479.296875 L 560.027344 479.296875 C 561.78125 479.296875 563.203125 477.871094 563.203125 476.121094 L 563.203125 381.890625 C 563.203125 380.136719 561.78125 378.714844 560.027344 378.714844 "/>
<path fill-rule="nonzero" fill="rgb(100%, 100%, 100%)" fill-opacity="1" d="M 704.382812 419.53125 L 704.011719 419.515625 L 617.789062 419.515625 C 616.050781 419.515625 614.417969 418.832031 613.195312 417.59375 C 611.976562 416.359375 611.3125 414.71875 611.335938 412.980469 L 611.433594 405.082031 C 611.476562 401.566406 614.371094 398.707031 617.886719 398.707031 L 721.472656 398.707031 C 723.074219 398.707031 724.375 397.40625 724.375 395.804688 L 724.375 382.058594 C 724.375 380.457031 723.074219 379.152344 721.472656 379.152344 L 617.074219 379.152344 L 616.699219 379.167969 C 615.636719 379.269531 590.59375 381.902344 590.59375 409.078125 C 590.59375 436.246094 615.214844 438.855469 616.261719 438.953125 L 616.632812 438.96875 L 703.03125 438.96875 C 705.75 438.96875 707.960938 441.179688 707.960938 443.898438 L 707.960938 455.246094 C 707.960938 457.964844 705.75 460.179688 703.03125 460.179688 L 599.003906 460.179688 C 597.402344 460.179688 596.101562 461.480469 596.101562 463.082031 L 596.101562 476.457031 C 596.101562 478.058594 597.402344 479.363281 599.003906 479.363281 L 702.679688 479.363281 L 702.992188 479.351562 C 704.097656 479.265625 730.113281 476.949219 730.253906 449.582031 C 730.394531 422.269531 705.445312 419.628906 704.382812 419.53125 "/>
<path fill-rule="nonzero" fill="rgb(100%, 100%, 100%)" fill-opacity="1" d="M 871.773438 419.53125 L 871.398438 419.515625 L 785.175781 419.515625 C 783.4375 419.515625 781.804688 418.832031 780.585938 417.59375 C 779.363281 416.359375 778.699219 414.71875 778.722656 412.980469 L 778.820312 405.082031 C 778.863281 401.566406 781.761719 398.707031 785.273438 398.707031 L 888.859375 398.707031 C 890.460938 398.707031 891.765625 397.40625 891.765625 395.804688 L 891.765625 382.058594 C 891.765625 380.457031 890.460938 379.152344 888.859375 379.152344 L 784.460938 379.152344 L 784.085938 379.167969 C 783.023438 379.269531 757.984375 381.902344 757.984375 409.078125 C 757.984375 436.246094 782.601562 438.855469 783.648438 438.953125 L 784.019531 438.96875 L 870.417969 438.96875 C 873.136719 438.96875 875.351562 441.179688 875.351562 443.898438 L 875.351562 455.246094 C 875.351562 457.964844 873.136719 460.179688 870.417969 460.179688 L 766.390625 460.179688 C 764.789062 460.179688 763.488281 461.480469 763.488281 463.082031 L 763.488281 476.457031 C 763.488281 478.058594 764.789062 479.363281 766.390625 479.363281 L 870.066406 479.363281 L 870.378906 479.351562 C 871.484375 479.265625 897.5 476.949219 897.640625 449.582031 C 897.78125 422.269531 872.835938 419.628906 871.773438 419.53125 "/>
<path fill-rule="nonzero" fill="rgb(100%, 100%, 100%)" fill-opacity="1" d="M 954.714844 399.574219 L 1064.257812 399.386719 C 1065.910156 399.382812 1067.257812 398.035156 1067.257812 396.378906 L 1067.257812 381.71875 C 1067.257812 380.0625 1065.910156 378.714844 1064.25 378.714844 L 951.882812 378.714844 C 936.238281 378.714844 923.511719 391.441406 923.511719 407.085938 L 923.511719 451.261719 C 923.511719 466.90625 936.238281 479.632812 951.882812 479.632812 L 1064.25 479.632812 C 1065.910156 479.632812 1067.257812 478.285156 1067.257812 476.625 L 1067.257812 461.765625 C 1067.257812 460.109375 1065.910156 458.757812 1064.25 458.757812 L 954.726562 458.757812 C 951.148438 458.757812 948.234375 455.847656 948.234375 452.269531 L 948.234375 439.476562 L 1048.816406 439.476562 C 1050.398438 439.476562 1051.6875 438.1875 1051.6875 436.605469 L 1051.6875 422.214844 C 1051.6875 420.632812 1050.398438 419.34375 1048.816406 419.34375 L 948.234375 419.34375 L 948.234375 406.066406 C 948.234375 402.492188 951.144531 399.578125 954.714844 399.574219 "/>
<path fill-rule="nonzero" fill="rgb(0%, 0%, 0%)" fill-opacity="1" d="M 651.84375 501.113281 L 648.039062 501.113281 C 647.332031 501.117188 646.757812 501.6875 646.757812 502.398438 L 646.757812 518.566406 C 646.757812 519.324219 646.140625 519.941406 645.382812 519.941406 L 626.339844 519.941406 C 625.582031 519.941406 624.964844 519.324219 624.964844 518.566406 L 624.964844 502.398438 C 624.964844 501.6875 624.390625 501.117188 623.679688 501.113281 L 619.878906 501.113281 C 619.167969 501.117188 618.59375 501.6875 618.59375 502.398438 L 618.59375 519.203125 C 618.59375 522.894531 621.585938 525.882812 625.273438 525.882812 L 646.445312 525.882812 C 650.136719 525.882812 653.125 522.894531 653.125 519.203125 L 653.125 502.398438 C 653.125 501.6875 652.550781 501.117188 651.84375 501.113281 "/>
<path fill-rule="nonzero" fill="rgb(0%, 0%, 0%)" fill-opacity="1" d="M 612.339844 501.113281 L 602.304688 501.113281 C 601.386719 501.113281 600.507812 501.476562 599.859375 502.125 L 578.445312 523.539062 C 578.210938 523.773438 578.082031 524.105469 578.085938 524.40625 C 578.085938 524.722656 578.203125 525.015625 578.417969 525.246094 C 578.628906 525.476562 578.964844 525.636719 579.3125 525.632812 L 584.808594 525.632812 L 585.203125 525.46875 L 585.371094 525.398438 L 603.941406 506.582031 L 607.261719 506.582031 L 607.21875 524.246094 L 607.21875 524.25 C 607.21875 524.925781 607.765625 525.476562 608.445312 525.476562 L 612.339844 525.476562 C 613.015625 525.476562 613.5625 524.929688 613.5625 524.25 L 613.5625 502.339844 C 613.5625 501.664062 613.015625 501.117188 612.339844 501.113281 "/>
<path fill-rule="nonzero" fill="rgb(0%, 0%, 0%)" fill-opacity="1" d="M 946.183594 501.269531 L 942.289062 501.269531 C 941.609375 501.269531 941.0625 501.824219 941.0625 502.5 L 941.0625 502.488281 L 940.898438 519.949219 L 938.707031 519.949219 L 925.933594 501.382812 L 925.464844 501.183594 L 925.296875 501.113281 L 913.886719 501.113281 C 913.210938 501.113281 912.660156 501.664062 912.660156 502.339844 L 912.660156 524.25 C 912.660156 524.929688 913.210938 525.476562 913.886719 525.476562 L 917.78125 525.476562 C 918.460938 525.476562 919.007812 524.925781 919.007812 524.25 L 918.964844 507.125 L 921.152344 507.125 L 934.140625 525.371094 L 934.605469 525.5625 L 934.777344 525.632812 L 946.183594 525.632812 C 946.859375 525.632812 947.410156 525.085938 947.410156 524.40625 L 947.410156 502.496094 C 947.410156 501.820312 946.859375 501.269531 946.183594 501.269531 "/>
<path fill-rule="nonzero" fill="rgb(0%, 0%, 0%)" fill-opacity="1" d="M 568.242188 511.210938 C 567.128906 510.730469 566.203125 510.628906 565.988281 510.605469 L 565.96875 510.605469 L 565.898438 510.601562 L 545.59375 510.601562 C 545.019531 510.597656 544.558594 510.136719 544.558594 509.566406 L 544.582031 507.699219 C 544.589844 507.132812 545.050781 506.675781 545.613281 506.675781 L 570.339844 506.675781 L 570.859375 506.15625 L 571.128906 505.890625 L 571.128906 501.902344 L 570.605469 501.382812 L 570.339844 501.113281 L 545.402344 501.113281 L 545.335938 501.117188 L 545.3125 501.117188 L 545.292969 501.121094 C 545.007812 501.148438 543.445312 501.316406 541.855469 502.34375 C 541.0625 502.859375 540.265625 503.601562 539.675781 504.640625 C 539.085938 505.679688 538.714844 507.007812 538.71875 508.632812 C 538.714844 510.253906 539.078125 511.574219 539.65625 512.609375 C 540.527344 514.175781 541.84375 515.050781 542.949219 515.53125 C 544.058594 516.007812 544.972656 516.113281 545.1875 516.132812 L 545.210938 516.136719 L 545.28125 516.136719 L 545.300781 516.140625 L 565.625 516.140625 C 566 516.140625 566.300781 516.441406 566.304688 516.816406 L 566.304688 519.480469 C 566.300781 519.855469 566 520.15625 565.625 520.160156 L 540.800781 520.160156 L 540.277344 520.679688 L 540.011719 520.945312 L 540.011719 524.84375 L 540.53125 525.367188 L 540.800781 525.632812 L 565.636719 525.632812 L 565.65625 525.628906 C 565.929688 525.605469 567.546875 525.460938 569.203125 524.453125 C 570.027344 523.949219 570.859375 523.214844 571.480469 522.171875 C 572.105469 521.132812 572.5 519.796875 572.507812 518.152344 L 572.507812 518.097656 C 572.511719 516.476562 572.144531 515.15625 571.558594 514.121094 C 570.683594 512.5625 569.355469 511.6875 568.242188 511.210938 "/>
<path fill-rule="nonzero" fill="rgb(0%, 0%, 0%)" fill-opacity="1" d="M 1021.566406 511.210938 C 1020.453125 510.730469 1019.527344 510.628906 1019.3125 510.605469 L 1019.292969 510.605469 L 1019.222656 510.601562 L 998.914062 510.601562 C 998.34375 510.597656 997.882812 510.136719 997.882812 509.566406 L 997.90625 507.699219 C 997.910156 507.132812 998.375 506.675781 998.9375 506.675781 L 1023.664062 506.675781 L 1024.183594 506.15625 L 1024.453125 505.890625 L 1024.453125 501.902344 L 1023.929688 501.382812 L 1023.664062 501.113281 L 998.726562 501.113281 L 998.660156 501.117188 L 998.636719 501.117188 L 998.617188 501.121094 C 998.332031 501.148438 996.769531 501.316406 995.175781 502.34375 C 994.386719 502.859375 993.589844 503.601562 993 504.640625 C 992.410156 505.679688 992.039062 507.007812 992.042969 508.632812 C 992.039062 510.253906 992.402344 511.574219 992.980469 512.613281 C 993.851562 514.175781 995.167969 515.050781 996.273438 515.527344 C 997.378906 516.007812 998.296875 516.113281 998.511719 516.132812 L 998.535156 516.136719 L 998.605469 516.136719 L 998.625 516.140625 L 1018.949219 516.140625 C 1019.324219 516.140625 1019.625 516.441406 1019.625 516.816406 L 1019.625 519.480469 C 1019.625 519.855469 1019.324219 520.15625 1018.949219 520.15625 L 994.125 520.15625 L 993.335938 520.945312 L 993.335938 524.84375 L 993.855469 525.367188 L 994.121094 525.632812 L 1018.960938 525.632812 L 1018.980469 525.628906 C 1019.253906 525.605469 1020.871094 525.460938 1022.527344 524.453125 C 1023.351562 523.949219 1024.183594 523.214844 1024.804688 522.171875 C 1025.429688 521.132812 1025.824219 519.796875 1025.832031 518.152344 L 1025.832031 518.097656 C 1025.832031 516.476562 1025.46875 515.15625 1024.882812 514.121094 C 1024.003906 512.5625 1022.679688 511.6875 1021.566406 511.210938 "/>
<path fill-rule="nonzero" fill="rgb(0%, 0%, 0%)" fill-opacity="1" d="M 1064.804688 514.121094 C 1063.925781 512.5625 1062.601562 511.6875 1061.488281 511.210938 C 1060.371094 510.730469 1059.449219 510.628906 1059.234375 510.605469 L 1059.214844 510.605469 L 1059.144531 510.601562 L 1038.835938 510.601562 C 1038.265625 510.597656 1037.804688 510.136719 1037.804688 509.570312 L 1037.828125 507.699219 C 1037.832031 507.132812 1038.292969 506.675781 1038.859375 506.675781 L 1063.585938 506.675781 L 1064.105469 506.15625 L 1064.371094 505.886719 L 1064.371094 501.902344 L 1063.851562 501.382812 L 1063.585938 501.113281 L 1038.648438 501.113281 L 1038.582031 501.117188 L 1038.558594 501.117188 L 1038.539062 501.121094 C 1038.253906 501.152344 1036.691406 501.320312 1035.097656 502.34375 C 1034.308594 502.859375 1033.511719 503.601562 1032.921875 504.640625 C 1032.332031 505.679688 1031.960938 507.007812 1031.960938 508.628906 C 1031.960938 510.253906 1032.324219 511.574219 1032.902344 512.613281 C 1033.773438 514.171875 1035.089844 515.050781 1036.195312 515.53125 C 1037.300781 516.007812 1038.21875 516.113281 1038.433594 516.132812 L 1038.457031 516.136719 L 1038.527344 516.136719 L 1038.546875 516.140625 L 1058.871094 516.140625 C 1059.246094 516.140625 1059.546875 516.441406 1059.546875 516.816406 L 1059.546875 519.484375 C 1059.546875 519.855469 1059.246094 520.15625 1058.871094 520.160156 L 1034.042969 520.160156 L 1033.257812 520.945312 L 1033.257812 524.84375 L 1033.777344 525.367188 L 1034.042969 525.632812 L 1058.863281 525.632812 L 1058.878906 525.628906 L 1058.902344 525.628906 C 1059.175781 525.605469 1060.792969 525.460938 1062.445312 524.453125 C 1063.273438 523.949219 1064.105469 523.214844 1064.726562 522.171875 C 1065.351562 521.132812 1065.746094 519.796875 1065.753906 518.152344 L 1065.753906 518.097656 C 1065.753906 516.480469 1065.386719 515.15625 1064.804688 514.121094 "/>
<path fill-rule="nonzero" fill="rgb(0%, 0%, 0%)" fill-opacity="1" d="M 731.546875 501.296875 L 704.894531 501.296875 C 700.960938 501.296875 697.773438 504.484375 697.773438 508.417969 L 697.773438 518.746094 C 697.773438 522.679688 700.960938 525.867188 704.894531 525.867188 L 731.546875 525.867188 L 732.09375 525.324219 L 732.359375 525.058594 L 732.359375 520.828125 L 731.816406 520.28125 L 731.546875 520.015625 L 705.558594 520.015625 C 704.988281 520.015625 704.527344 519.554688 704.523438 518.984375 L 704.523438 516.476562 L 727.9375 516.476562 L 728.71875 515.695312 L 728.71875 511.578125 L 727.9375 510.796875 L 704.523438 510.796875 L 704.523438 508.179688 C 704.523438 507.609375 704.988281 507.144531 705.554688 507.144531 L 731.550781 507.101562 L 732.09375 506.558594 L 732.359375 506.289062 L 732.359375 502.105469 L 731.816406 501.5625 Z M 731.546875 501.296875 "/>
<path fill-rule="nonzero" fill="rgb(0%, 0%, 0%)" fill-opacity="1" d="M 793.964844 501.296875 L 767.308594 501.296875 C 763.375 501.296875 760.1875 504.484375 760.1875 508.417969 L 760.1875 518.746094 C 760.1875 522.679688 763.375 525.867188 767.308594 525.867188 L 793.964844 525.867188 L 794.773438 525.058594 L 794.773438 520.828125 L 794.230469 520.28125 L 793.964844 520.015625 L 767.972656 520.015625 C 767.402344 520.015625 766.941406 519.554688 766.941406 518.984375 L 766.941406 516.476562 L 790.355469 516.476562 L 790.867188 515.964844 L 791.132812 515.695312 L 791.132812 511.578125 L 790.621094 511.066406 L 790.355469 510.796875 L 766.941406 510.796875 L 766.941406 508.179688 C 766.941406 507.609375 767.402344 507.144531 767.972656 507.144531 L 793.964844 507.101562 L 794.507812 506.558594 L 794.773438 506.289062 L 794.773438 502.105469 Z M 793.964844 501.296875 "/>
<path fill-rule="nonzero" fill="rgb(0%, 0%, 0%)" fill-opacity="1" d="M 986.074219 501.296875 L 959.417969 501.296875 C 955.484375 501.296875 952.296875 504.484375 952.296875 508.417969 L 952.296875 518.746094 C 952.296875 522.679688 955.484375 525.867188 959.417969 525.867188 L 986.074219 525.867188 L 986.617188 525.324219 L 986.886719 525.058594 L 986.886719 520.828125 L 986.074219 520.015625 L 960.082031 520.015625 C 959.511719 520.015625 959.050781 519.554688 959.050781 518.984375 L 959.050781 516.476562 L 982.464844 516.476562 L 982.976562 515.964844 L 983.242188 515.695312 L 983.242188 511.578125 L 982.734375 511.066406 L 982.464844 510.796875 L 959.050781 510.796875 L 959.050781 508.179688 C 959.050781 507.609375 959.511719 507.144531 960.082031 507.144531 L 986.074219 507.101562 L 986.886719 506.289062 L 986.886719 502.105469 L 986.339844 501.5625 Z M 986.074219 501.296875 "/>
<path fill-rule="nonzero" fill="rgb(0%, 0%, 0%)" fill-opacity="1" d="M 686.253906 519.089844 C 686.253906 519.398438 686.136719 519.664062 685.960938 519.847656 C 685.785156 520.035156 685.566406 520.136719 685.320312 520.136719 L 664.847656 520.171875 L 664.847656 507.171875 L 685.320312 507.171875 C 685.5625 507.175781 685.78125 507.273438 685.960938 507.460938 C 686.136719 507.648438 686.253906 507.910156 686.253906 508.21875 Z M 685.949219 501.296875 L 659.523438 501.296875 L 658.703125 502.117188 L 658.703125 525.1875 L 659.257812 525.742188 L 659.523438 526.011719 L 685.949219 526.011719 C 687.84375 526.011719 689.558594 525.191406 690.777344 523.894531 C 692.003906 522.597656 692.75 520.8125 692.75 518.851562 L 692.75 508.457031 C 692.75 506.496094 692.003906 504.710938 690.777344 503.414062 C 689.558594 502.113281 687.84375 501.296875 685.949219 501.296875 "/>
<path fill-rule="nonzero" fill="rgb(0%, 0%, 0%)" fill-opacity="1" d="M 856.429688 501.296875 L 829.773438 501.296875 C 825.839844 501.296875 822.65625 504.484375 822.65625 508.417969 L 822.65625 525.320312 L 823.035156 525.703125 L 823.300781 525.96875 L 828.738281 525.96875 L 829.386719 525.320312 L 829.386719 519.273438 L 829.40625 519.273438 L 829.40625 518.621094 L 852.820312 518.621094 L 853.597656 517.84375 L 853.597656 513.722656 L 853.085938 513.210938 L 852.820312 512.941406 L 829.40625 512.941406 L 829.40625 508.179688 C 829.40625 507.609375 829.867188 507.144531 830.4375 507.144531 L 856.429688 507.101562 L 857.242188 506.289062 L 857.242188 502.105469 L 856.699219 501.5625 Z M 856.429688 501.296875 "/>
<path fill-rule="nonzero" fill="rgb(0%, 0%, 0%)" fill-opacity="1" d="M 867.871094 501.113281 L 863.105469 501.113281 L 862.589844 501.632812 L 862.320312 501.898438 L 862.320312 524.925781 L 862.839844 525.441406 L 863.105469 525.710938 L 867.871094 525.710938 L 868.136719 525.441406 L 868.652344 524.925781 L 868.652344 501.898438 L 868.136719 501.382812 Z M 867.871094 501.113281 "/>
<path fill-rule="nonzero" fill="rgb(0%, 0%, 0%)" fill-opacity="1" d="M 905.507812 501.042969 L 874.710938 501.042969 L 873.925781 501.828125 L 873.925781 506.589844 L 874.710938 507.375 L 886.945312 507.375 L 886.945312 525.230469 L 887.460938 525.746094 L 887.726562 526.015625 L 892.492188 526.015625 L 893.007812 525.496094 L 893.277344 525.230469 L 893.277344 507.375 L 905.507812 507.375 L 906.027344 506.859375 L 906.292969 506.589844 L 906.292969 501.828125 L 905.777344 501.308594 Z M 905.507812 501.042969 "/>
<path fill-rule="nonzero" fill="rgb(100%, 11.799622%, 11.799622%)" fill-opacity="1" d="M 217.960938 396.378906 L 217.960938 381.71875 C 217.960938 381.066406 217.429688 380.539062 216.777344 380.539062 L 104.410156 380.539062 C 89.746094 380.539062 77.863281 392.421875 77.863281 407.085938 L 77.863281 451.261719 C 77.863281 465.921875 89.746094 477.808594 104.410156 477.808594 L 216.777344 477.808594 C 217.429688 477.808594 217.960938 477.28125 217.960938 476.628906 L 217.960938 461.765625 C 217.960938 461.113281 217.429688 460.585938 216.777344 460.585938 L 107.253906 460.585938 C 102.660156 460.585938 98.9375 456.859375 98.9375 452.265625 L 98.9375 406.066406 C 98.9375 401.476562 102.652344 397.757812 107.238281 397.75 L 216.777344 397.5625 C 217.429688 397.5625 217.960938 397.03125 217.960938 396.378906 "/>
<path fill-rule="nonzero" fill="rgb(100%, 11.799622%, 11.799622%)" fill-opacity="1" d="M 385.480469 477.167969 L 385.480469 462.710938 C 385.480469 461.835938 384.769531 461.125 383.894531 461.125 L 276.523438 461.125 C 271.113281 461.125 266.730469 456.738281 266.730469 451.328125 L 266.730469 382.125 C 266.730469 381.25 266.019531 380.539062 265.140625 380.539062 L 248.863281 380.539062 C 247.988281 380.539062 247.277344 381.25 247.277344 382.125 L 247.277344 454.066406 C 247.277344 467.703125 258.328125 478.753906 271.964844 478.753906 L 383.894531 478.753906 C 384.769531 478.753906 385.480469 478.042969 385.480469 477.167969 "/>
<path fill-rule="nonzero" fill="rgb(100%, 11.799622%, 11.799622%)" fill-opacity="1" d="M 543.28125 477.472656 L 560.027344 477.472656 C 560.773438 477.472656 561.378906 476.867188 561.378906 476.121094 L 561.378906 381.890625 C 561.378906 381.144531 560.773438 380.539062 560.027344 380.539062 L 516.871094 380.539062 C 513.96875 380.539062 511.1875 381.691406 509.136719 383.742188 L 417.035156 475.839844 C 416.183594 476.691406 416.789062 478.144531 417.992188 478.144531 L 440.847656 478.144531 C 441.210938 478.144531 441.554688 478.003906 441.808594 477.746094 L 521.871094 396.609375 C 522.125 396.355469 522.472656 396.210938 522.835938 396.210938 L 540.773438 396.210938 C 541.519531 396.210938 542.128906 396.816406 542.125 397.5625 L 541.929688 476.117188 C 541.925781 476.863281 542.53125 477.472656 543.28125 477.472656 "/>
<path fill-rule="nonzero" fill="rgb(100%, 11.799622%, 11.799622%)" fill-opacity="1" d="M 617.886719 396.886719 L 721.472656 396.886719 C 722.070312 396.886719 722.554688 396.402344 722.554688 395.804688 L 722.554688 382.058594 C 722.554688 381.460938 722.070312 380.976562 721.472656 380.976562 L 617.070312 380.976562 C 617 380.976562 616.941406 380.980469 616.871094 380.984375 C 615.148438 381.144531 592.417969 383.730469 592.417969 409.078125 C 592.417969 434.414062 614.722656 436.976562 616.429688 437.136719 C 616.503906 437.140625 616.5625 437.144531 616.632812 437.144531 L 703.03125 437.144531 C 706.761719 437.144531 709.785156 440.167969 709.785156 443.898438 L 709.785156 455.246094 C 709.785156 458.976562 706.761719 462.003906 703.03125 462.003906 L 599.003906 462.003906 C 598.40625 462.003906 597.925781 462.484375 597.925781 463.082031 L 597.925781 476.457031 C 597.925781 477.054688 598.40625 477.539062 599.003906 477.539062 L 702.679688 477.539062 C 702.738281 477.539062 702.789062 477.535156 702.851562 477.53125 C 704.507812 477.40625 728.300781 475.132812 728.429688 449.574219 C 728.558594 424.101562 705.9375 421.507812 704.214844 421.347656 C 704.144531 421.339844 704.085938 421.339844 704.011719 421.339844 L 617.789062 421.339844 C 613.175781 421.339844 609.453125 417.570312 609.511719 412.957031 L 609.609375 405.058594 C 609.664062 400.527344 613.355469 396.886719 617.886719 396.886719 "/>
<path fill-rule="nonzero" fill="rgb(100%, 11.799622%, 11.799622%)" fill-opacity="1" d="M 785.273438 396.886719 L 888.859375 396.886719 C 889.457031 396.886719 889.941406 396.402344 889.941406 395.804688 L 889.941406 382.058594 C 889.941406 381.460938 889.457031 380.976562 888.859375 380.976562 L 784.460938 380.976562 C 784.386719 380.976562 784.328125 380.980469 784.257812 380.984375 C 782.535156 381.144531 759.804688 383.730469 759.804688 409.078125 C 759.804688 434.414062 782.109375 436.976562 783.816406 437.136719 C 783.890625 437.140625 783.949219 437.144531 784.019531 437.144531 L 870.417969 437.144531 C 874.148438 437.144531 877.171875 440.167969 877.171875 443.898438 L 877.171875 455.246094 C 877.171875 458.976562 874.148438 462.003906 870.417969 462.003906 L 766.390625 462.003906 C 765.796875 462.003906 765.3125 462.484375 765.3125 463.082031 L 765.3125 476.457031 C 765.3125 477.054688 765.796875 477.539062 766.390625 477.539062 L 870.066406 477.539062 C 870.128906 477.539062 870.179688 477.535156 870.238281 477.53125 C 871.894531 477.40625 895.6875 475.132812 895.816406 449.574219 C 895.949219 424.101562 873.324219 421.507812 871.601562 421.347656 C 871.53125 421.339844 871.472656 421.339844 871.398438 421.339844 L 785.175781 421.339844 C 780.5625 421.339844 776.84375 417.570312 776.898438 412.957031 L 776.996094 405.058594 C 777.054688 400.527344 780.742188 396.886719 785.273438 396.886719 "/>
<path fill-rule="nonzero" fill="rgb(100%, 11.799622%, 11.799622%)" fill-opacity="1" d="M 954.714844 397.75 L 1064.253906 397.5625 C 1064.90625 397.5625 1065.433594 397.03125 1065.433594 396.378906 L 1065.433594 381.71875 C 1065.433594 381.066406 1064.90625 380.539062 1064.25 380.539062 L 951.882812 380.539062 C 937.222656 380.539062 925.335938 392.425781 925.335938 407.085938 L 925.335938 451.261719 C 925.335938 465.925781 937.222656 477.808594 951.882812 477.808594 L 1064.25 477.808594 C 1064.90625 477.808594 1065.433594 477.28125 1065.433594 476.625 L 1065.433594 461.765625 C 1065.433594 461.113281 1064.90625 460.582031 1064.25 460.582031 L 954.726562 460.582031 C 950.132812 460.582031 946.410156 456.859375 946.410156 452.269531 L 946.410156 437.652344 L 1048.816406 437.652344 C 1049.394531 437.652344 1049.863281 437.183594 1049.863281 436.605469 L 1049.863281 422.214844 C 1049.863281 421.636719 1049.394531 421.167969 1048.816406 421.167969 L 946.410156 421.167969 L 946.410156 406.066406 C 946.410156 401.476562 950.125 397.757812 954.714844 397.75 "/>
<path fill-rule="nonzero" fill="rgb(0%, 0%, 0%)" fill-opacity="1" d="M 1434.675781 518.914062 L 1223.820312 308.058594 C 1218.746094 302.984375 1212 300.1875 1204.820312 300.1875 L 1106.011719 300.1875 C 1103.300781 300.1875 1101.097656 302.394531 1101.097656 305.105469 L 1101.097656 520.84375 C 1101.097656 523.554688 1103.300781 525.761719 1106.011719 525.761719 L 1144.359375 525.761719 C 1145.675781 525.761719 1146.910156 525.246094 1147.839844 524.316406 C 1148.769531 523.382812 1149.277344 522.148438 1149.273438 520.832031 L 1148.828125 340.988281 C 1148.824219 340.648438 1148.957031 340.328125 1149.195312 340.085938 C 1149.4375 339.847656 1149.757812 339.714844 1150.097656 339.714844 L 1191.167969 339.714844 C 1191.507812 339.714844 1191.835938 339.851562 1192.074219 340.09375 L 1375.375 525.84375 C 1376.289062 526.773438 1377.566406 527.308594 1378.871094 527.308594 L 1431.199219 527.308594 C 1433.226562 527.308594 1434.96875 526.144531 1435.742188 524.269531 C 1436.519531 522.398438 1436.109375 520.347656 1434.675781 518.914062 "/>
<path fill-rule="nonzero" fill="rgb(100%, 100%, 100%)" fill-opacity="1" d="M 1144.363281 523.9375 L 1106.015625 523.9375 C 1104.308594 523.9375 1102.921875 522.550781 1102.921875 520.84375 L 1102.921875 305.105469 C 1102.921875 303.398438 1104.308594 302.011719 1106.015625 302.011719 L 1204.824219 302.011719 C 1211.46875 302.011719 1217.839844 304.652344 1222.535156 309.347656 L 1433.390625 520.203125 C 1435.339844 522.152344 1433.960938 525.484375 1431.203125 525.484375 L 1378.875 525.484375 C 1378.050781 525.484375 1377.257812 525.152344 1376.675781 524.5625 L 1193.375 338.8125 C 1192.792969 338.222656 1192 337.890625 1191.171875 337.890625 L 1150.097656 337.890625 C 1148.386719 337.890625 1147 339.28125 1147.007812 340.992188 L 1147.453125 520.835938 C 1147.457031 522.546875 1146.074219 523.9375 1144.363281 523.9375 "/>
<path fill-rule="nonzero" fill="rgb(100%, 100%, 100%)" fill-opacity="1" d="M 651.84375 502.027344 L 648.039062 502.027344 C 647.835938 502.027344 647.667969 502.191406 647.667969 502.398438 L 647.667969 518.566406 C 647.667969 519.828125 646.644531 520.851562 645.382812 520.851562 L 626.339844 520.851562 C 625.074219 520.851562 624.050781 519.828125 624.050781 518.566406 L 624.050781 502.398438 C 624.050781 502.191406 623.886719 502.027344 623.679688 502.027344 L 619.878906 502.027344 C 619.671875 502.027344 619.507812 502.191406 619.507812 502.398438 L 619.507812 519.203125 C 619.507812 522.390625 622.089844 524.972656 625.273438 524.972656 L 646.445312 524.972656 C 649.632812 524.972656 652.214844 522.390625 652.214844 519.203125 L 652.214844 502.398438 C 652.214844 502.191406 652.046875 502.027344 651.84375 502.027344 "/>
<path fill-rule="nonzero" fill="rgb(100%, 100%, 100%)" fill-opacity="1" d="M 608.445312 524.566406 L 612.335938 524.566406 C 612.511719 524.566406 612.652344 524.421875 612.652344 524.25 L 612.652344 502.339844 C 612.652344 502.167969 612.511719 502.027344 612.335938 502.027344 L 602.300781 502.027344 C 601.628906 502.027344 600.980469 502.292969 600.503906 502.769531 L 579.089844 524.1875 C 578.890625 524.382812 579.03125 524.722656 579.3125 524.722656 L 584.625 524.722656 C 584.710938 524.722656 584.789062 524.6875 584.851562 524.628906 L 603.464844 505.765625 C 603.523438 505.703125 603.605469 505.667969 603.691406 505.667969 L 607.859375 505.667969 C 608.035156 505.667969 608.175781 505.8125 608.175781 505.984375 L 608.128906 524.25 C 608.128906 524.421875 608.269531 524.566406 608.445312 524.566406 "/>
<path fill-rule="nonzero" fill="rgb(100%, 100%, 100%)" fill-opacity="1" d="M 946.183594 502.183594 L 942.289062 502.183594 C 942.117188 502.183594 941.972656 502.324219 941.976562 502.5 L 941.804688 520.546875 C 941.804688 520.722656 941.664062 520.863281 941.492188 520.863281 L 938.386719 520.863281 C 938.304688 520.863281 938.222656 520.828125 938.164062 520.769531 L 925.335938 502.121094 C 925.277344 502.058594 925.195312 502.027344 925.113281 502.027344 L 913.886719 502.027344 C 913.714844 502.027344 913.574219 502.167969 913.574219 502.339844 L 913.574219 524.25 C 913.574219 524.425781 913.714844 524.566406 913.886719 524.566406 L 917.78125 524.566406 C 917.957031 524.566406 918.097656 524.421875 918.09375 524.25 L 918.050781 506.527344 C 918.050781 506.355469 918.191406 506.214844 918.363281 506.214844 L 921.46875 506.214844 C 921.550781 506.214844 921.632812 506.246094 921.691406 506.308594 L 934.734375 524.628906 C 934.792969 524.6875 934.875 524.722656 934.957031 524.722656 L 946.183594 524.722656 C 946.355469 524.722656 946.496094 524.582031 946.496094 524.410156 L 946.496094 502.496094 C 946.496094 502.324219 946.355469 502.183594 946.183594 502.183594 "/>
<path fill-rule="nonzero" fill="rgb(100%, 100%, 100%)" fill-opacity="1" d="M 545.613281 505.765625 L 569.960938 505.765625 C 570.101562 505.765625 570.214844 505.652344 570.214844 505.511719 L 570.214844 502.28125 C 570.214844 502.140625 570.101562 502.027344 569.960938 502.027344 L 545.425781 502.027344 C 545.40625 502.027344 545.394531 502.027344 545.375 502.027344 C 544.972656 502.066406 539.628906 502.671875 539.628906 508.632812 C 539.628906 514.585938 544.871094 515.1875 545.273438 515.226562 C 545.289062 515.226562 545.304688 515.226562 545.320312 515.226562 L 565.628906 515.226562 C 566.503906 515.226562 567.214844 515.9375 567.214844 516.816406 L 567.214844 519.480469 C 567.214844 520.359375 566.503906 521.070312 565.628906 521.070312 L 541.175781 521.070312 C 541.035156 521.070312 540.921875 521.183594 540.921875 521.324219 L 540.921875 524.46875 C 540.921875 524.609375 541.035156 524.722656 541.175781 524.722656 L 565.542969 524.722656 C 565.558594 524.722656 565.570312 524.722656 565.585938 524.71875 C 565.972656 524.691406 571.566406 524.15625 571.597656 518.148438 C 571.628906 512.164062 566.308594 511.550781 565.90625 511.515625 C 565.890625 511.511719 565.875 511.511719 565.859375 511.511719 L 545.59375 511.511719 C 544.507812 511.511719 543.632812 510.625 543.648438 509.542969 L 543.671875 507.6875 C 543.683594 506.621094 544.550781 505.765625 545.613281 505.765625 "/>
<path fill-rule="nonzero" fill="rgb(100%, 100%, 100%)" fill-opacity="1" d="M 998.9375 505.765625 L 1023.285156 505.765625 C 1023.425781 505.765625 1023.539062 505.652344 1023.539062 505.511719 L 1023.539062 502.28125 C 1023.539062 502.140625 1023.425781 502.027344 1023.285156 502.027344 L 998.746094 502.027344 C 998.730469 502.027344 998.71875 502.027344 998.699219 502.027344 C 998.296875 502.066406 992.953125 502.671875 992.953125 508.632812 C 992.953125 514.585938 998.195312 515.1875 998.597656 515.226562 C 998.613281 515.226562 998.628906 515.226562 998.644531 515.226562 L 1018.949219 515.226562 C 1019.828125 515.226562 1020.539062 515.9375 1020.539062 516.816406 L 1020.539062 519.480469 C 1020.539062 520.359375 1019.828125 521.070312 1018.949219 521.070312 L 994.5 521.070312 C 994.359375 521.070312 994.246094 521.183594 994.246094 521.324219 L 994.246094 524.46875 C 994.246094 524.609375 994.359375 524.722656 994.5 524.722656 L 1018.867188 524.722656 C 1018.882812 524.722656 1018.894531 524.722656 1018.910156 524.71875 C 1019.296875 524.691406 1024.890625 524.15625 1024.921875 518.148438 C 1024.949219 512.164062 1019.632812 511.550781 1019.230469 511.515625 C 1019.214844 511.511719 1019.199219 511.511719 1019.183594 511.511719 L 998.914062 511.511719 C 997.832031 511.511719 996.957031 510.625 996.972656 509.542969 L 996.992188 507.6875 C 997.007812 506.621094 997.875 505.765625 998.9375 505.765625 "/>
<path fill-rule="nonzero" fill="rgb(100%, 100%, 100%)" fill-opacity="1" d="M 1038.859375 505.765625 L 1063.207031 505.765625 C 1063.347656 505.765625 1063.460938 505.652344 1063.460938 505.511719 L 1063.460938 502.28125 C 1063.460938 502.140625 1063.347656 502.027344 1063.207031 502.027344 L 1038.667969 502.027344 C 1038.652344 502.027344 1038.636719 502.027344 1038.621094 502.027344 C 1038.214844 502.066406 1032.875 502.671875 1032.875 508.632812 C 1032.875 514.585938 1038.117188 515.1875 1038.519531 515.226562 C 1038.535156 515.226562 1038.550781 515.226562 1038.566406 515.226562 L 1058.871094 515.226562 C 1059.75 515.226562 1060.460938 515.9375 1060.460938 516.816406 L 1060.460938 519.480469 C 1060.460938 520.359375 1059.75 521.070312 1058.871094 521.070312 L 1034.421875 521.070312 C 1034.28125 521.070312 1034.167969 521.183594 1034.167969 521.324219 L 1034.167969 524.46875 C 1034.167969 524.609375 1034.28125 524.722656 1034.421875 524.722656 L 1058.789062 524.722656 C 1058.804688 524.722656 1058.816406 524.722656 1058.832031 524.71875 C 1059.21875 524.691406 1064.8125 524.15625 1064.84375 518.148438 C 1064.871094 512.164062 1059.554688 511.550781 1059.152344 511.515625 C 1059.132812 511.511719 1059.121094 511.511719 1059.105469 511.511719 L 1038.835938 511.511719 C 1037.753906 511.511719 1036.878906 510.625 1036.890625 509.542969 L 1036.914062 507.6875 C 1036.929688 506.621094 1037.796875 505.765625 1038.859375 505.765625 "/>
<path fill-rule="nonzero" fill="rgb(100%, 100%, 100%)" fill-opacity="1" d="M 705.554688 506.234375 L 731.171875 506.1875 C 731.324219 506.1875 731.449219 506.066406 731.449219 505.914062 L 731.449219 502.484375 C 731.449219 502.332031 731.324219 502.207031 731.171875 502.207031 L 704.894531 502.207031 C 701.464844 502.207031 698.683594 504.988281 698.683594 508.414062 L 698.683594 518.746094 C 698.683594 522.175781 701.464844 524.957031 704.894531 524.957031 L 731.171875 524.957031 C 731.324219 524.957031 731.449219 524.832031 731.449219 524.679688 L 731.449219 521.203125 C 731.449219 521.050781 731.324219 520.929688 731.171875 520.929688 L 705.558594 520.929688 C 704.484375 520.929688 703.613281 520.058594 703.613281 518.984375 L 703.613281 515.5625 L 727.5625 515.5625 C 727.695312 515.5625 727.804688 515.453125 727.804688 515.320312 L 727.804688 511.953125 C 727.804688 511.820312 727.695312 511.710938 727.5625 511.710938 L 703.613281 511.710938 L 703.613281 508.179688 C 703.613281 507.105469 704.480469 506.234375 705.554688 506.234375 "/>
<path fill-rule="nonzero" fill="rgb(100%, 100%, 100%)" fill-opacity="1" d="M 767.96875 506.234375 L 793.585938 506.1875 C 793.738281 506.1875 793.863281 506.066406 793.863281 505.914062 L 793.863281 502.484375 C 793.863281 502.332031 793.738281 502.207031 793.585938 502.207031 L 767.308594 502.207031 C 763.878906 502.207031 761.101562 504.988281 761.101562 508.414062 L 761.101562 518.746094 C 761.101562 522.175781 763.878906 524.957031 767.308594 524.957031 L 793.585938 524.957031 C 793.738281 524.957031 793.863281 524.832031 793.863281 524.679688 L 793.863281 521.203125 C 793.863281 521.050781 793.738281 520.929688 793.585938 520.929688 L 767.972656 520.929688 C 766.898438 520.929688 766.027344 520.058594 766.027344 518.984375 L 766.027344 515.5625 L 789.976562 515.5625 C 790.113281 515.5625 790.222656 515.453125 790.222656 515.320312 L 790.222656 511.953125 C 790.222656 511.820312 790.113281 511.710938 789.976562 511.710938 L 766.027344 511.710938 L 766.027344 508.179688 C 766.027344 507.105469 766.898438 506.234375 767.96875 506.234375 "/>
<path fill-rule="nonzero" fill="rgb(100%, 100%, 100%)" fill-opacity="1" d="M 960.082031 506.234375 L 985.699219 506.1875 C 985.847656 506.1875 985.972656 506.066406 985.972656 505.914062 L 985.972656 502.484375 C 985.972656 502.332031 985.847656 502.207031 985.695312 502.207031 L 959.417969 502.207031 C 955.988281 502.207031 953.210938 504.988281 953.210938 508.414062 L 953.210938 518.746094 C 953.210938 522.175781 955.988281 524.957031 959.417969 524.957031 L 985.695312 524.957031 C 985.847656 524.957031 985.972656 524.832031 985.972656 524.679688 L 985.972656 521.203125 C 985.972656 521.050781 985.847656 520.929688 985.695312 520.929688 L 960.082031 520.929688 C 959.007812 520.929688 958.136719 520.058594 958.136719 518.984375 L 958.136719 515.5625 L 982.085938 515.5625 C 982.222656 515.5625 982.332031 515.453125 982.332031 515.320312 L 982.332031 511.953125 C 982.332031 511.820312 982.222656 511.710938 982.085938 511.710938 L 958.136719 511.710938 L 958.136719 508.179688 C 958.136719 507.105469 959.007812 506.234375 960.082031 506.234375 "/>
<path fill-rule="nonzero" fill="rgb(100%, 100%, 100%)" fill-opacity="1" d="M 687.164062 519.089844 C 687.164062 520.171875 686.339844 521.046875 685.324219 521.046875 L 663.9375 521.085938 L 663.9375 506.261719 L 685.320312 506.261719 C 686.339844 506.261719 687.164062 507.136719 687.164062 508.21875 Z M 685.949219 502.207031 L 659.902344 502.207031 C 659.742188 502.207031 659.613281 502.335938 659.613281 502.496094 L 659.613281 524.8125 C 659.613281 524.96875 659.742188 525.097656 659.902344 525.097656 L 685.949219 525.097656 C 689.203125 525.097656 691.839844 522.300781 691.839844 518.851562 L 691.839844 508.457031 C 691.839844 505.003906 689.203125 502.207031 685.949219 502.207031 "/>
<path fill-rule="nonzero" fill="rgb(100%, 100%, 100%)" fill-opacity="1" d="M 856.054688 502.207031 L 829.773438 502.207031 C 826.347656 502.207031 823.566406 504.988281 823.566406 508.417969 L 823.566406 524.941406 C 823.566406 525.003906 823.617188 525.054688 823.679688 525.054688 L 828.359375 525.054688 C 828.421875 525.054688 828.472656 525.003906 828.472656 524.941406 L 828.472656 518.269531 C 828.480469 518.273438 828.488281 518.273438 828.496094 518.273438 L 828.496094 517.710938 L 852.441406 517.710938 C 852.578125 517.710938 852.6875 517.601562 852.6875 517.464844 L 852.6875 514.101562 C 852.6875 513.964844 852.578125 513.855469 852.441406 513.855469 L 828.496094 513.855469 L 828.496094 508.179688 C 828.496094 507.105469 829.363281 506.234375 830.4375 506.234375 L 856.054688 506.1875 C 856.207031 506.1875 856.328125 506.066406 856.328125 505.914062 L 856.328125 502.484375 C 856.328125 502.332031 856.207031 502.207031 856.054688 502.207031 "/>
<path fill-rule="nonzero" fill="rgb(100%, 100%, 100%)" fill-opacity="1" d="M 867.605469 524.796875 L 863.371094 524.796875 C 863.296875 524.796875 863.234375 524.738281 863.234375 524.660156 L 863.234375 502.164062 C 863.234375 502.085938 863.296875 502.027344 863.371094 502.027344 L 867.605469 502.027344 C 867.679688 502.027344 867.742188 502.085938 867.742188 502.164062 L 867.742188 524.660156 C 867.742188 524.738281 867.679688 524.796875 867.605469 524.796875 "/>
<path fill-rule="nonzero" fill="rgb(100%, 100%, 100%)" fill-opacity="1" d="M 905.132812 501.953125 L 875.089844 501.953125 C 874.949219 501.953125 874.839844 502.066406 874.839844 502.203125 L 874.839844 506.214844 C 874.839844 506.351562 874.949219 506.464844 875.089844 506.464844 L 887.855469 506.464844 L 887.855469 524.851562 C 887.855469 524.988281 887.96875 525.101562 888.105469 525.101562 L 892.113281 525.101562 C 892.253906 525.101562 892.363281 524.988281 892.363281 524.851562 L 892.363281 506.464844 L 905.132812 506.464844 C 905.269531 506.464844 905.382812 506.351562 905.382812 506.214844 L 905.382812 502.203125 C 905.382812 502.066406 905.269531 501.953125 905.132812 501.953125 "/>
<path fill-rule="nonzero" fill="rgb(0%, 0%, 0%)" fill-opacity="1" d="M 645.121094 489.769531 C 644.957031 489.59375 644.703125 489.476562 644.441406 489.476562 L 638.617188 489.476562 L 638.300781 489.546875 L 638.097656 489.78125 L 631.886719 500.628906 C 631.804688 500.773438 631.761719 500.941406 631.761719 501.101562 C 631.761719 501.351562 631.859375 501.582031 632.027344 501.753906 C 632.191406 501.929688 632.445312 502.046875 632.707031 502.046875 L 638.53125 502.046875 L 638.878906 501.847656 L 639.050781 501.746094 L 645.261719 490.894531 C 645.34375 490.75 645.386719 490.582031 645.386719 490.425781 C 645.386719 490.171875 645.289062 489.941406 645.121094 489.769531 "/>
<path fill-rule="nonzero" fill="rgb(100%, 100%, 100%)" fill-opacity="1" d="M 644.4375 490.230469 L 638.816406 490.230469 C 638.746094 490.230469 638.683594 490.265625 638.648438 490.328125 L 632.539062 501.003906 C 632.464844 501.132812 632.558594 501.296875 632.707031 501.296875 L 638.332031 501.296875 C 638.402344 501.296875 638.464844 501.257812 638.5 501.199219 L 644.609375 490.523438 C 644.683594 490.390625 644.589844 490.230469 644.4375 490.230469 "/>
</svg>
