<?xml version="1.0" standalone="no"?>
<!DOCTYPE svg PUBLIC "-//W3C//DTD SVG 20010904//EN" "http://www.w3.org/TR/2001/REC-SVG-20010904/DTD/svg10.dtd">
<svg xmlns="http://www.w3.org/2000/svg" version="1.0" width="906.000000pt" height="1280.000000pt" viewBox="0 0 906.000000 1280.000000" preserveAspectRatio="xMidYMid meet">
<metadata>
Created by potrace 1.16, written by Peter Selinger 2001-2019
<meta name="Producer" content="Online-Convert"/></metadata>
<g transform="translate(0.000000,1280.000000) scale(0.100000,-0.100000)" fill="#000000" stroke="none">
<path d="M4033 11695 c-18 -8 -42 -23 -54 -34 -12 -11 -26 -18 -31 -15 -4 3 -14 -8 -21 -25 -7 -17 -16 -28 -20 -25 -3 4 -9 -7 -13 -22 -4 -16 -12 -35 -18 -43 -8 -11 -8 -13 1 -8 6 4 15 2 19 -4 4 -8 3 -9 -4 -5 -7 4 -12 2 -12 -4 0 -6 -5 -8 -11 -4 -7 4 -9 0 -5 -14 10 -30 -19 -93 -38 -86 -20 8 -114 -14 -144 -33 -17 -10 -21 -20 -16 -36 6 -21 5 -21 -8 -3 -14 18 -15 18 -31 -4 -9 -13 -14 -27 -11 -32 3 -4 -2 -5 -11 -2 -11 5 -14 2 -8 -12 4 -11 3 -15 -5 -11 -6 5 -18 -18 -32 -61 -26 -81 -24 -119 4 -114 18 3 18 2 2 -13 -16 -16 -13 -41 3 -30 5 2 8 -3 8 -13 0 -9 1 -24 2 -32 1 -18 91 -117 91 -101 0 6 7 11 16 11 14 0 15 -2 3 -17 -12 -14 -12 -15 0 -9 8 5 16 4 21 -3 4 -7 13 -14 21 -15 8 -2 21 -6 30 -10 9 -4 20 -6 25 -5 5 1 16 0 24 -4 8 -3 22 -7 30 -10 13 -3 15 -86 12 -673 -1 -368 -6 -672 -11 -677 -4 -4 -296 -9 -649 -10 -510 -2 -641 1 -637 11 2 6 1 12 -4 12 -4 0 -13 23 -19 52 -7 28 -20 57 -30 65 -11 10 -12 12 -2 8 12 -5 12 -4 -1 7 -9 7 -14 19 -11 26 2 7 -15 31 -37 53 -39 36 -59 50 -48 32 3 -5 -6 -9 -19 -9 -21 -2 -22 0 -7 14 14 14 13 17 -18 27 -41 14 -130 25 -124 15 2 -3 -12 -6 -31 -5 -23 0 -33 -3 -30 -11 3 -7 -2 -10 -12 -7 -9 2 -26 -3 -37 -12 -11 -9 -14 -13 -6 -9 9 4 12 3 7 -4 -3 -6 -15 -9 -26 -7 -13 2 -20 -2 -20 -11 0 -9 -5 -12 -12 -8 -10 6 -10 4 0 -7 14 -16 16 -39 2 -39 -5 0 -10 8 -10 17 0 14 -4 12 -17 -7 -9 -14 -19 -27 -22 -30 -17 -15 -31 -54 -31 -87 0 -28 3 -34 10 -23 8 12 10 11 10 -7 0 -17 -4 -21 -17 -16 -10 4 -14 2 -9 -5 3 -6 2 -13 -4 -17 -6 -4 -8 -9 -6 -13 2 -4 -21 -7 -51 -8 -32 0 -58 -6 -63 -13 -4 -7 -10 -13 -13 -12 -4 0 -21 -5 -38 -11 -23 -8 -29 -15 -26 -29 3 -11 0 -22 -5 -26 -7 -3 -8 -1 -4 5 4 7 1 12 -8 12 -9 0 -23 -12 -33 -27 -10 -16 -22 -31 -29 -35 -6 -4 -9 -25 -8 -48 1 -30 -1 -38 -10 -31 -9 7 -12 -4 -14 -45 -1 -41 1 -53 11 -48 7 5 5 0 -3 -11 -13 -17 -13 -18 0 -13 12 4 15 -4 17 -34 1 -40 26 -79 46 -74 7 2 9 1 5 -1 -13 -7 -9 -18 13 -42 16 -17 24 -20 29 -11 8 14 39 2 39 -15 0 -5 16 -15 37 -22 30 -11 39 -11 46 -1 6 10 8 10 8 1 0 -15 42 -17 56 -3 7 7 10 -7 9 -40 0 -28 4 -50 8 -50 5 0 5 -4 2 -10 -3 -5 -1 -10 5 -10 7 0 8 -6 0 -19 -7 -14 -7 -22 0 -26 6 -4 8 -11 5 -16 -4 -5 5 -20 19 -34 14 -14 22 -25 19 -25 -3 0 0 -7 7 -15 7 -8 16 -12 21 -9 5 3 6 -1 3 -9 -3 -8 0 -18 7 -23 7 -4 10 -3 5 4 -3 6 -1 14 5 18 7 4 9 3 5 -4 -8 -13 22 -44 35 -37 5 4 9 1 9 -5 0 -15 48 -32 103 -36 31 -2 67 4 103 17 66 25 145 96 148 132 0 14 4 23 9 20 4 -2 7 5 7 16 0 10 4 21 9 23 5 2 11 31 13 66 2 47 6 62 18 62 8 0 293 0 632 0 406 0 619 3 623 10 3 5 12 10 18 10 7 0 6 -4 -3 -10 -13 -8 -13 -10 2 -10 9 0 20 -5 23 -10 3 -6 6 -199 5 -430 -1 -425 0 -426 33 -421 4 0 7 -4 7 -9 0 -6 6 -10 13 -9 6 2 32 -1 55 -5 29 -5 48 -4 55 3 16 16 78 14 96 -3 9 -8 36 -16 61 -18 25 -2 49 -7 53 -13 6 -6 10 -6 14 3 7 19 23 14 16 -5 -5 -12 -2 -15 9 -11 9 4 19 3 24 -2 5 -5 25 -10 44 -11 19 -2 41 -7 48 -12 7 -6 14 -8 17 -5 2 2 5 209 5 461 1 315 5 466 13 487 12 31 21 37 32 20 9 -15 1299 -14 1328 1 12 7 19 8 15 4 -4 -5 -2 -15 5 -23 9 -13 9 -14 0 -8 -8 4 -13 1 -13 -9 0 -9 4 -14 8 -11 4 3 7 -9 6 -26 -3 -44 14 -86 39 -94 19 -6 19 -8 4 -18 -14 -11 -8 -19 44 -70 34 -32 63 -55 66 -52 4 3 13 0 21 -7 10 -7 13 -8 9 -1 -4 7 3 14 18 16 19 4 23 2 15 -7 -13 -16 8 -25 55 -25 52 0 68 9 53 28 -11 14 -9 14 15 -1 15 -10 27 -13 27 -7 0 6 4 9 9 5 5 -3 17 2 25 11 9 8 16 13 16 9 0 -17 71 63 73 82 1 14 6 19 16 15 9 -3 12 -1 7 6 -3 6 -2 13 3 16 16 10 22 68 9 84 -10 13 -10 14 0 8 8 -5 12 0 12 16 0 33 18 48 58 48 19 0 31 4 27 10 -3 6 -1 10 4 10 6 0 11 -4 11 -9 0 -6 9 -9 20 -8 11 1 20 5 20 9 0 4 9 8 20 8 14 0 20 6 18 18 -2 13 4 17 24 17 24 0 99 57 96 74 -1 3 2 14 7 24 4 9 5 32 3 51 -3 28 -1 33 14 31 15 -3 18 3 18 41 0 24 -4 44 -8 44 -5 0 -15 23 -22 50 -10 37 -18 49 -28 45 -11 -4 -12 -2 -5 7 6 9 -1 23 -25 48 -22 23 -30 28 -23 13 8 -15 8 -24 1 -28 -6 -4 -9 -3 -8 2 5 18 -14 53 -28 53 -9 0 -22 6 -29 14 -8 7 -42 16 -77 20 -75 9 -88 18 -88 63 0 24 -4 32 -12 27 -8 -5 -9 -2 -4 11 4 11 2 22 -6 27 -10 6 -10 8 0 8 20 0 13 23 -18 59 -16 19 -27 38 -25 42 3 4 -7 15 -21 24 -15 9 -24 13 -20 7 7 -12 -20 -10 -31 3 -4 4 -2 5 5 1 6 -4 12 -3 12 2 0 17 -50 43 -70 37 -12 -4 -20 -2 -20 5 0 8 -18 10 -57 6 -81 -7 -123 -17 -123 -28 0 -5 -6 -6 -12 -2 -10 6 -10 5 -1 -8 13 -15 8 -28 -11 -28 -6 0 -4 5 4 10 13 8 13 10 -1 10 -9 0 -27 -9 -40 -21 -13 -11 -18 -18 -11 -14 7 4 12 0 12 -9 0 -10 -7 -13 -21 -11 -17 3 -20 0 -16 -15 3 -13 0 -20 -9 -20 -8 0 -11 -6 -7 -17 3 -10 2 -15 -2 -10 -5 4 -15 -7 -22 -24 -17 -41 -16 -49 5 -43 16 5 16 4 -1 -9 -14 -11 -15 -16 -5 -20 8 -4 7 -6 -4 -6 -10 -1 -18 -6 -18 -12 0 -5 4 -8 9 -4 5 3 12 1 16 -5 3 -5 1 -10 -6 -10 -8 0 -9 -4 0 -13 8 -10 7 -14 -4 -14 -8 0 -15 3 -15 6 0 3 -107 5 -237 4 -822 -9 -1123 -8 -1118 4 2 7 -1 12 -8 10 -15 -3 -22 1305 -7 1333 6 12 17 16 30 13 11 -3 27 0 35 7 8 6 23 9 36 5 12 -4 19 -3 16 1 -3 5 6 10 20 11 14 0 36 13 50 27 25 27 42 35 27 13 -5 -7 -2 -5 6 4 8 9 21 25 28 35 11 17 11 16 2 -3 -16 -34 -3 -28 15 6 11 23 12 31 2 34 -6 3 -2 6 10 6 17 1 25 10 31 34 5 17 7 37 3 42 -3 6 -6 30 -7 55 -1 30 1 38 6 25 4 -11 6 -23 4 -27 -3 -4 -1 -9 4 -12 7 -4 8 19 3 67 -1 5 -5 6 -9 3 -5 -3 -9 1 -9 9 0 8 4 12 9 9 12 -8 10 3 -8 37 -10 19 -21 29 -30 25 -16 -6 -19 5 -3 21 7 7 0 18 -23 37 -18 14 -39 31 -46 37 -7 5 -17 7 -22 4 -5 -3 -7 0 -4 9 6 17 -33 28 -104 28 -56 1 -82 20 -82 60 0 24 -8 32 -30 30 -4 0 -6 10 -6 23 0 13 4 21 8 19 14 -9 9 10 -9 36 -10 14 -17 26 -15 28 11 12 -3 11 -23 -2 -29 -19 -31 -15 -9 18 19 31 -2 49 -23 20 -13 -18 -13 -17 -11 6 2 18 -2 25 -14 24 -11 -1 -15 4 -10 15 5 14 4 14 -11 2 -15 -12 -17 -12 -12 1 4 11 -3 17 -26 22 -53 10 -142 6 -176 -9z"/>
<path d="M5062 8005 c-14 -31 -15 -38 -3 -31 4 3 5 -9 1 -27 -4 -17 -12 -31 -19 -29 -14 3 -34 -45 -25 -60 4 -6 2 -8 -3 -5 -6 4 -13 -2 -16 -13 -3 -11 -1 -18 4 -14 16 10 10 -3 -19 -36 -28 -31 -29 -32 -118 -31 -49 0 -110 7 -136 15 -25 8 -49 12 -53 8 -3 -3 -4 0 -1 8 4 10 -6 21 -29 31 -19 9 -37 14 -40 11 -10 -10 -35 -11 -29 -1 3 5 10 6 16 3 7 -5 8 -2 4 5 -5 7 -14 10 -22 7 -8 -3 -14 -2 -14 3 0 8 -41 24 -65 25 -5 1 -13 6 -18 13 -4 6 -29 15 -55 19 -26 3 -53 11 -59 16 -9 7 -13 6 -13 -3 0 -9 -7 -6 -18 7 -16 20 -69 34 -142 38 -14 0 -28 4 -31 8 -11 16 -121 28 -284 30 -229 4 -293 -1 -305 -21 -6 -10 -10 -11 -10 -3 0 19 -40 15 -40 -5 0 -13 -3 -14 -11 -6 -12 12 -42 6 -35 -6 2 -3 -19 -7 -47 -8 -40 -1 -56 -7 -70 -24 -14 -18 -20 -20 -26 -10 -6 9 -10 10 -15 2 -4 -6 -11 -9 -16 -6 -5 3 -15 -1 -23 -9 -8 -8 -17 -13 -19 -10 -3 2 -29 -8 -59 -22 -29 -15 -59 -27 -67 -27 -7 0 -11 -6 -8 -12 2 -6 -5 -11 -18 -11 -16 1 -21 -4 -19 -24 1 -14 -1 -19 -3 -12 -7 14 -44 16 -44 2 0 -5 -7 -10 -15 -10 -8 0 -15 -5 -15 -11 0 -5 -4 -7 -10 -4 -5 3 -10 -1 -10 -10 0 -9 -4 -14 -9 -11 -5 4 -38 -18 -73 -46 -87 -72 -90 -76 -82 -89 4 -7 3 -9 -4 -5 -6 3 -13 2 -17 -4 -4 -6 -10 -8 -14 -5 -5 2 -8 -5 -7 -18 0 -12 -5 -22 -11 -23 -7 -1 -17 -2 -23 -3 -5 0 -10 -7 -10 -15 0 -8 -9 -22 -21 -30 -13 -9 -18 -19 -14 -27 5 -8 4 -10 -3 -5 -7 4 -12 1 -12 -9 0 -9 4 -14 8 -11 5 3 9 -1 9 -9 0 -12 -4 -12 -19 2 -18 16 -18 16 -12 -2 5 -11 4 -16 -2 -12 -6 3 -16 -3 -23 -15 -10 -16 -10 -19 1 -13 7 5 3 -2 -9 -13 -12 -12 -24 -30 -28 -42 -3 -11 -12 -20 -18 -21 -7 0 -3 -4 8 -9 16 -7 16 -9 4 -9 -9 -1 -24 -16 -33 -35 -19 -41 -21 -60 -3 -50 7 4 9 3 4 -2 -5 -5 -13 -9 -19 -9 -6 0 -19 -27 -29 -60 -22 -69 -21 -68 -11 -62 4 3 8 -7 8 -21 1 -15 -1 -21 -3 -14 -3 6 -10 12 -15 12 -6 0 -8 -3 -5 -6 3 -4 2 -15 -4 -26 -6 -10 -10 -81 -10 -156 -1 -135 11 -233 31 -257 5 -6 7 -14 5 -17 -3 -3 0 -18 7 -34 6 -16 13 -33 14 -39 6 -32 17 -54 25 -49 5 3 6 -2 3 -11 -4 -8 1 -26 10 -40 9 -14 13 -25 9 -25 -5 0 -3 -4 2 -8 6 -4 19 -24 29 -44 11 -21 23 -38 28 -38 5 0 6 -5 3 -10 -3 -6 1 -13 9 -16 9 -3 16 -11 16 -18 0 -12 22 -44 53 -77 9 -11 15 -19 12 -19 -3 0 9 -13 25 -29 17 -15 30 -32 30 -37 0 -5 14 -22 30 -37 22 -22 29 -24 24 -10 -3 10 2 5 11 -10 10 -17 22 -26 30 -23 7 2 19 -3 27 -12 9 -11 10 -14 1 -8 -21 12 -15 -5 9 -26 12 -10 28 -16 35 -13 9 3 11 0 7 -6 -9 -15 54 -71 70 -62 6 3 8 3 4 -2 -4 -4 9 -21 29 -36 30 -24 38 -27 51 -17 11 9 13 9 9 1 -12 -20 20 -41 56 -38 23 2 34 -1 34 -10 0 -8 -4 -12 -9 -9 -18 11 -7 -9 15 -26 17 -14 25 -16 36 -7 12 10 13 9 6 -2 -6 -11 -4 -13 8 -8 11 4 17 1 17 -8 0 -19 36 -39 45 -25 3 5 12 10 18 10 7 0 6 -4 -3 -10 -13 -9 -13 -11 0 -20 8 -5 25 -10 38 -10 13 0 21 -4 18 -9 -5 -8 12 -20 25 -17 3 0 22 -12 42 -27 31 -24 38 -26 43 -13 3 9 14 16 23 16 14 -1 14 -2 -1 -11 -10 -5 -18 -14 -18 -18 0 -8 27 -19 40 -17 3 1 19 -9 35 -20 39 -28 72 -38 80 -24 8 12 25 4 25 -13 0 -7 -4 -6 -11 3 -8 12 -10 12 -7 1 2 -8 29 -28 59 -44 30 -16 62 -35 73 -42 20 -15 50 -9 39 8 -3 6 -1 7 6 3 6 -4 9 -11 6 -15 -2 -5 7 -18 20 -31 22 -20 28 -22 52 -11 25 10 26 10 10 -3 -17 -13 -16 -15 12 -29 17 -9 31 -11 31 -6 0 5 4 9 10 9 5 0 7 -6 5 -12 -3 -8 15 -23 42 -37 27 -14 60 -33 75 -43 31 -21 42 -23 32 -5 -5 8 -2 7 9 -2 10 -8 15 -16 12 -19 -7 -7 45 -33 55 -27 5 3 12 0 16 -6 5 -8 2 -10 -7 -5 -8 4 -5 0 5 -8 12 -9 30 -14 47 -11 15 3 31 1 34 -5 3 -6 -1 -7 -9 -4 -21 8 -20 2 2 -23 18 -21 79 -42 67 -23 -3 5 -1 10 5 10 7 0 10 -6 7 -14 -8 -19 17 -53 27 -38 4 7 15 12 24 12 15 -1 15 -2 -1 -11 -18 -10 -18 -11 0 -24 10 -7 22 -11 27 -8 5 4 6 1 2 -5 -3 -6 2 -16 13 -22 14 -7 22 -7 27 2 4 7 3 8 -4 4 -7 -4 -12 -3 -12 2 0 6 6 12 14 15 11 4 13 -1 10 -19 -3 -19 1 -27 21 -36 14 -6 25 -15 25 -19 0 -4 9 -11 21 -14 11 -4 25 -18 31 -31 6 -13 17 -24 25 -24 7 0 17 -10 22 -22 12 -30 52 -63 71 -60 10 3 9 -2 -5 -13 -13 -11 -15 -15 -5 -12 11 3 16 -2 17 -16 1 -12 12 -30 25 -40 13 -10 17 -16 10 -12 -7 4 -4 -9 8 -30 11 -19 20 -43 20 -51 0 -10 6 -14 15 -11 8 4 17 1 21 -5 4 -7 3 -8 -4 -4 -16 10 -15 -7 2 -49 8 -19 12 -35 9 -35 -3 0 0 -6 6 -13 6 -8 8 -17 5 -20 -3 -3 -2 -11 2 -18 4 -7 9 -23 10 -36 2 -13 7 -56 13 -96 11 -77 8 -146 -8 -214 -6 -23 -9 -55 -7 -72 2 -17 0 -29 -4 -26 -4 2 -16 -14 -28 -36 -12 -22 -16 -37 -9 -33 7 4 1 -5 -13 -21 -14 -16 -19 -25 -12 -21 6 4 12 2 12 -4 0 -6 5 -8 12 -4 6 4 8 3 4 -4 -3 -6 -15 -9 -25 -7 -12 2 -23 -6 -32 -23 -7 -15 -12 -30 -11 -34 1 -5 -5 -8 -14 -8 -10 0 -14 -6 -11 -14 3 -8 -1 -17 -9 -20 -10 -4 -13 -1 -8 7 3 6 -6 -1 -21 -18 -14 -16 -23 -23 -19 -15 5 8 -7 2 -26 -14 -19 -16 -34 -33 -33 -38 2 -4 0 -7 -5 -6 -20 6 -115 -58 -107 -72 3 -4 -1 -7 -8 -7 -24 2 -87 -15 -87 -24 0 -5 -7 -9 -15 -9 -8 0 -15 -4 -15 -10 0 -5 -5 -10 -11 -10 -5 0 -7 5 -4 10 4 6 -14 1 -39 -12 -31 -15 -42 -25 -36 -33 6 -7 2 -11 -11 -12 -11 -1 -17 2 -14 7 6 9 -29 7 -92 -6 -38 -7 -40 -12 -16 -29 16 -12 14 -12 -10 -8 -15 3 -24 9 -21 14 3 5 1 9 -5 9 -5 0 -13 -4 -16 -10 -3 -6 -12 -10 -18 -10 -7 0 -6 4 3 10 13 8 13 10 -2 10 -9 0 -19 -4 -22 -9 -9 -13 -106 -11 -106 3 0 6 -4 5 -9 -3 -6 -10 -21 -12 -50 -8 -23 3 -41 1 -41 -3 0 -5 -16 -4 -35 1 -19 6 -39 7 -44 4 -5 -3 -12 -1 -16 4 -3 6 -20 4 -41 -5 -20 -8 -33 -10 -29 -5 3 6 14 11 23 12 20 0 -59 26 -103 33 -19 3 -36 -1 -49 -12 -18 -16 -18 -16 -7 6 7 12 8 22 4 21 -4 -1 -11 0 -15 1 -5 1 -11 3 -15 5 -5 1 -19 6 -33 12 -14 6 -42 18 -62 26 -28 12 -38 13 -38 4 -1 -7 -8 1 -16 17 -13 22 -18 26 -25 15 -6 -10 -9 -10 -9 -1 0 6 -7 12 -15 12 -8 0 -15 5 -15 10 0 6 -6 10 -14 10 -8 0 -16 4 -18 9 -1 5 -10 11 -18 13 -8 2 -25 13 -37 26 -13 13 -23 19 -23 14 0 -6 -7 -13 -16 -16 -8 -3 -13 -2 -10 3 3 5 -1 11 -9 15 -8 3 -15 15 -15 27 0 18 -2 19 -15 9 -16 -13 -19 -8 -15 24 1 10 -3 15 -9 12 -5 -4 -34 18 -64 48 -30 31 -58 52 -62 48 -5 -4 -5 -2 -1 5 4 7 -9 27 -29 47 -20 20 -32 36 -28 37 4 0 -2 4 -14 9 -13 5 -23 18 -23 28 0 11 -6 25 -13 31 -10 8 -14 7 -14 -4 0 -8 4 -12 9 -9 4 3 8 1 8 -4 0 -6 -6 -12 -14 -15 -10 -4 -13 3 -11 27 3 24 -4 41 -30 70 -19 22 -34 42 -33 45 2 18 -3 31 -12 31 -5 0 -7 -8 -4 -17 5 -14 4 -15 -4 -4 -6 8 -8 20 -5 28 3 8 -2 22 -12 33 -9 10 -14 23 -11 29 4 5 2 12 -4 16 -16 10 -50 96 -43 109 5 8 3 8 -8 -1 -12 -9 -14 -5 -16 24 -1 19 -7 40 -13 48 -6 7 -7 21 -3 30 5 14 3 16 -7 10 -10 -6 -12 -4 -7 7 3 9 3 19 -1 22 -3 4 -7 12 -9 19 -16 76 -35 177 -37 197 -2 22 -8 25 -47 28 l-44 3 0 -729 -1 -729 26 2 c14 1 30 3 37 3 13 2 29 82 25 120 -2 17 1 22 10 16 11 -6 11 -5 0 8 -10 13 -10 18 -1 24 8 5 9 3 4 -6 -5 -9 -4 -11 3 -6 7 4 12 12 12 17 0 6 12 22 28 36 15 14 26 29 24 34 -1 5 10 9 25 10 16 0 71 1 125 2 53 1 94 -1 92 -5 -3 -4 4 -7 13 -7 10 1 29 -3 42 -7 17 -5 22 -4 17 5 -4 6 -12 8 -18 5 -7 -5 -8 -2 -3 6 6 10 12 9 24 -6 9 -10 30 -21 46 -23 17 -1 51 -11 78 -21 26 -10 57 -16 70 -13 18 4 19 3 7 -6 -12 -9 -8 -11 17 -11 17 0 35 -5 38 -10 5 -8 11 -8 20 0 10 8 15 8 21 -1 5 -8 3 -9 -6 -4 -9 5 -11 4 -6 -4 4 -6 11 -9 16 -6 5 3 28 -4 51 -15 22 -12 38 -17 35 -11 -9 14 26 1 36 -13 5 -7 8 -7 8 2 0 15 26 16 36 0 4 -6 3 -8 -4 -4 -6 3 -13 3 -16 -2 -4 -7 98 -44 129 -47 6 0 35 -9 66 -18 30 -10 71 -17 90 -16 19 0 46 -1 62 -4 27 -4 38 7 15 16 -10 4 -9 6 1 6 8 1 19 -6 25 -14 22 -31 473 -38 484 -7 1 5 14 7 27 4 14 -2 33 2 42 9 12 10 14 10 9 2 -5 -9 2 -13 23 -13 17 0 31 4 31 9 0 5 23 11 50 15 30 4 53 13 57 21 3 8 9 13 13 10 11 -7 71 15 91 32 9 8 20 13 25 12 17 -3 53 13 58 26 2 7 18 16 34 20 16 3 38 15 50 25 11 10 22 16 26 13 3 -3 8 2 12 11 3 9 10 13 15 10 5 -3 6 3 2 12 -5 14 -2 16 16 11 17 -4 21 -2 17 9 -3 8 -1 12 4 9 10 -6 84 43 90 60 1 6 9 15 17 20 8 6 15 20 16 32 0 12 5 19 9 17 5 -3 6 -10 3 -15 -13 -20 14 -8 28 13 8 13 40 49 71 80 48 49 63 78 40 78 -3 0 -2 -6 2 -12 5 -9 2 -9 -9 1 -23 18 -21 20 7 15 18 -3 26 1 31 16 3 11 3 25 -1 32 -6 9 -3 9 9 -1 14 -11 18 -11 24 5 3 11 11 22 17 26 7 5 7 8 -1 8 -7 0 -13 4 -13 9 0 5 7 8 16 7 9 0 21 13 29 32 8 18 10 30 5 27 -6 -3 -7 1 -4 9 3 9 10 14 14 11 10 -6 41 81 32 89 -3 3 0 6 6 6 12 0 52 83 52 109 0 14 -2 14 -10 1 -8 -13 -10 -12 -10 3 0 9 4 17 9 17 8 0 22 36 27 70 1 8 6 34 12 57 7 29 7 41 0 37 -7 -4 -7 2 -2 17 10 28 9 145 -1 204 -10 53 -13 76 -15 100 -1 16 -4 14 -15 -10 l-13 -30 1 47 c1 25 5 44 10 41 4 -2 7 1 7 6 0 6 -4 11 -10 11 -5 0 -10 8 -10 17 0 25 -23 83 -33 83 -4 0 -5 5 -2 10 3 6 1 10 -5 10 -6 0 -9 4 -5 9 3 5 1 12 -5 16 -6 4 -8 10 -5 15 3 5 1 11 -5 15 -5 3 -10 0 -10 -7 0 -9 -3 -9 -10 2 -14 22 -12 43 3 34 6 -4 4 2 -6 13 -9 11 -14 24 -10 28 5 5 -1 3 -11 -5 -14 -10 -17 -11 -12 -2 11 19 -20 78 -46 87 -28 10 -39 12 -56 14 -10 1 -10 4 0 15 8 9 15 10 19 4 4 -6 12 -9 18 -7 8 3 3 15 -13 34 -14 17 -26 33 -26 37 0 10 -101 113 -110 113 -5 0 -12 4 -17 9 -5 5 -2 6 6 1 9 -5 12 -3 9 6 -3 8 -14 15 -26 17 -12 2 -19 8 -16 14 4 6 -2 8 -17 4 -13 -3 -18 -3 -11 0 19 9 14 23 -13 36 -13 6 -22 14 -20 18 7 11 -41 30 -64 25 -16 -3 -19 1 -15 20 3 18 -4 28 -30 45 -19 11 -37 26 -40 33 -3 9 -5 9 -5 0 -1 -7 -8 -13 -17 -13 -13 0 -14 3 -5 14 9 10 6 17 -13 30 -30 19 -45 21 -28 4 15 -15 15 -28 0 -28 -6 0 -8 3 -5 7 11 11 -13 32 -31 27 -9 -3 -6 2 8 11 24 15 24 16 2 10 -16 -5 -22 -3 -20 7 2 9 -5 12 -22 10 -18 -2 -21 0 -12 6 11 7 7 14 -16 31 -34 24 -53 26 -69 10 -9 -9 -11 -7 -9 7 4 20 -10 44 -26 44 -5 0 -6 -5 -2 -12 4 -7 3 -8 -5 -4 -6 4 -9 11 -6 16 3 5 -12 18 -34 30 -29 14 -42 17 -47 8 -4 -7 -3 -8 4 -4 7 4 12 2 12 -3 0 -6 -7 -11 -16 -11 -11 0 -15 6 -11 20 6 22 -25 46 -43 35 -6 -4 -9 -1 -8 7 2 8 -6 13 -19 12 -12 0 -21 4 -20 10 1 6 -8 10 -21 9 -13 -2 -21 1 -18 5 3 5 -4 8 -16 8 -12 -1 -23 6 -25 14 -4 13 -3 13 6 0 8 -11 11 -11 11 -2 0 15 -48 35 -67 28 -9 -4 -11 -1 -7 5 4 7 0 9 -14 5 -15 -5 -20 -2 -18 11 0 11 -5 17 -16 17 -10 -1 -16 2 -13 6 3 4 -4 10 -15 13 -11 3 -23 1 -26 -4 -7 -12 -24 -11 -24 2 0 5 6 7 13 3 8 -5 8 -2 -2 9 -7 9 -20 17 -28 17 -7 0 -41 14 -75 31 -56 28 -60 29 -55 10 5 -21 -11 -25 -25 -6 -11 15 -10 27 2 20 6 -3 10 -4 10 -1 0 12 -61 36 -73 30 -7 -4 -9 -4 -5 1 8 8 -69 50 -84 47 -5 -1 -8 2 -8 7 0 5 -7 12 -16 15 -17 6 -12 -6 14 -36 10 -12 11 -18 3 -18 -6 0 -19 16 -28 35 -9 19 -19 32 -23 30 -4 -3 -18 4 -31 16 -12 11 -29 17 -36 14 -8 -2 -11 0 -8 5 3 6 -3 10 -15 10 -12 0 -18 5 -15 10 3 6 -3 10 -14 10 -12 0 -21 3 -21 8 0 13 -50 31 -78 27 -15 -2 -21 -2 -14 1 6 3 9 11 5 17 -4 7 2 5 13 -3 19 -14 19 -14 0 8 -11 12 -21 20 -24 18 -2 -3 -14 6 -26 19 -26 28 -76 44 -76 24 0 -7 -9 -3 -21 10 -12 12 -19 30 -17 39 5 19 -17 46 -31 38 -5 -3 -15 2 -22 11 -10 12 -10 14 -1 9 23 -14 12 4 -23 40 -20 20 -40 32 -47 28 -8 -5 -9 -2 -4 11 5 15 4 16 -9 5 -13 -11 -15 -10 -10 1 7 20 -33 82 -47 73 -6 -4 -8 -3 -4 4 3 5 -5 23 -18 39 -13 15 -24 30 -24 33 -1 19 -27 58 -35 53 -6 -3 -7 -1 -4 4 4 6 0 24 -8 39 -8 16 -15 34 -15 41 0 6 -4 13 -9 15 -14 5 -22 61 -28 180 -3 60 -1 120 5 136 6 19 6 35 -1 47 -8 15 -7 17 6 12 10 -4 17 1 20 14 5 17 3 18 -11 7 -13 -11 -15 -11 -10 4 4 10 1 19 -8 22 -8 3 -14 11 -13 18 0 10 2 10 6 1 7 -20 20 -15 28 10 4 14 8 17 12 9 3 -7 -1 -19 -7 -27 -9 -11 -9 -15 -1 -15 7 0 19 16 27 35 17 42 18 48 2 39 -7 -4 -8 -3 -4 5 4 6 11 9 16 6 5 -3 21 12 35 35 14 22 30 40 36 40 6 0 8 8 5 18 -8 25 6 43 24 32 13 -8 12 -10 -3 -10 -11 0 -15 -5 -11 -11 7 -12 74 51 67 64 -4 6 6 9 23 6 3 -1 18 11 34 26 15 14 36 28 46 29 11 2 18 10 16 20 -2 9 2 16 8 16 5 0 10 -5 10 -11 0 -5 5 -7 10 -4 6 4 8 11 5 16 -4 5 3 9 15 9 14 0 19 4 14 13 -5 9 -4 9 6 0 17 -15 44 -5 30 12 -7 8 -5 12 5 12 8 0 15 -4 15 -8 0 -9 59 9 77 23 7 5 16 7 22 4 5 -4 29 0 53 8 73 23 366 26 395 4 7 -5 17 -7 23 -3 26 16 67 22 67 11 0 -8 -10 -11 -25 -8 -17 3 -23 1 -18 -7 4 -6 11 -9 16 -6 4 3 23 -1 41 -8 19 -7 44 -13 57 -12 12 1 20 0 17 -3 -6 -7 64 -41 94 -45 11 -2 28 -10 38 -18 31 -26 73 -50 73 -42 0 5 5 1 10 -9 6 -10 18 -14 32 -11 16 3 19 2 10 -4 -16 -12 29 -53 59 -53 11 0 17 -4 14 -10 -3 -5 -1 -10 5 -10 6 0 9 -4 5 -9 -3 -6 3 -8 14 -6 15 3 18 0 14 -13 -6 -15 -4 -15 9 -4 13 10 18 10 24 1 4 -8 3 -9 -4 -5 -17 10 -15 -9 2 -23 10 -8 16 -9 21 -1 3 6 11 8 16 4 6 -3 5 -12 -3 -22 -7 -9 -8 -13 -2 -9 7 4 14 -3 18 -18 4 -17 11 -23 23 -18 10 4 14 2 10 -4 -4 -6 2 -22 14 -34 16 -18 19 -20 15 -6 -4 11 -2 16 5 12 5 -4 8 -14 5 -23 -6 -18 25 -62 43 -62 6 0 10 -3 9 -7 -6 -22 65 -126 77 -115 5 4 5 -1 2 -11 -7 -17 22 -72 46 -88 5 -4 3 -9 -4 -12 -9 -3 -9 -6 -2 -6 6 -1 17 -17 23 -36 6 -19 15 -33 20 -30 4 2 10 -14 13 -37 3 -22 15 -54 26 -69 12 -16 21 -40 21 -54 0 -14 4 -25 10 -25 5 0 7 -6 4 -14 -3 -8 2 -28 11 -45 8 -17 13 -31 10 -31 -3 0 1 -15 9 -34 8 -19 12 -37 9 -40 -3 -3 0 -12 6 -20 7 -8 10 -20 6 -26 -3 -5 -2 -10 4 -10 5 0 11 -17 13 -37 3 -36 5 -38 38 -38 l35 0 3 730 c1 402 0 745 -3 763 -5 27 -10 32 -34 32 -20 0 -31 -7 -39 -25z"/>
<path d="M5255 7851 c3 -5 -2 -12 -10 -15 -10 -4 -14 -14 -11 -31 3 -13 1 -27 -4 -30 -5 -3 -8 -14 -7 -25 1 -10 5 -16 10 -13 6 3 8 -9 5 -28 -3 -19 -1 -42 4 -51 6 -12 5 -18 -2 -18 -6 0 -8 -5 -5 -10 4 -7 13 -6 27 1 16 8 19 8 13 -1 -5 -8 -3 -11 5 -8 8 2 22 -4 33 -15 14 -14 21 -16 33 -6 13 10 18 6 15 -13 -2 -12 71 -39 88 -33 9 3 12 3 8 -1 -13 -13 24 -43 48 -38 26 5 42 -10 24 -22 -8 -5 -9 -3 -4 6 5 9 4 11 -4 6 -6 -4 -9 -12 -5 -17 3 -5 10 -7 15 -4 5 4 9 1 9 -4 0 -6 5 -11 11 -11 5 0 7 5 4 10 -3 6 -1 10 5 10 7 0 9 -8 4 -22 -3 -13 -3 -20 1 -16 5 5 15 -1 23 -13 8 -11 20 -18 29 -15 8 4 11 1 8 -5 -8 -11 23 -38 40 -35 5 2 7 1 3 -1 -9 -6 32 -74 49 -80 7 -3 13 -11 13 -18 0 -7 6 -18 14 -24 8 -7 18 -26 21 -43 5 -23 9 -27 16 -17 6 10 9 8 9 -8 0 -13 4 -23 8 -23 4 0 8 -9 9 -21 1 -12 11 -51 23 -87 12 -36 24 -87 27 -113 3 -27 9 -46 13 -44 4 2 5 -7 2 -20 -2 -15 0 -25 7 -25 6 0 11 -10 10 -22 0 -22 -1 -22 -9 -3 -6 14 -9 2 -8 -40 0 -44 2 -54 8 -35 7 23 8 23 9 3 1 -12 -3 -24 -7 -27 -5 -3 -14 -38 -22 -78 -7 -40 -16 -80 -21 -89 -5 -10 -3 -21 4 -29 8 -9 8 -11 1 -7 -7 4 -15 0 -18 -9 -9 -24 -8 -27 12 -20 11 4 9 0 -7 -12 -14 -12 -24 -30 -24 -50 -1 -16 -5 -28 -9 -26 -5 3 -8 -2 -8 -10 0 -9 -4 -16 -9 -16 -7 0 -20 -32 -25 -60 -1 -3 -13 -21 -27 -40 -44 -59 -62 -90 -55 -97 7 -8 -23 -43 -37 -43 -5 0 -20 -11 -33 -25 -13 -14 -20 -25 -17 -25 3 0 -17 -18 -46 -41 -28 -22 -48 -45 -45 -50 3 -5 2 -9 -3 -8 -15 4 -63 -24 -57 -33 3 -4 9 -6 14 -3 4 3 10 -2 13 -9 4 -11 0 -13 -15 -11 -11 3 -23 7 -26 9 -6 7 -59 -21 -68 -35 -5 -8 -2 -9 7 -4 12 7 12 6 0 -6 -10 -11 -15 -11 -18 -2 -3 8 -10 9 -21 4 -9 -5 -30 -14 -45 -20 -17 -7 -25 -16 -21 -23 4 -6 3 -8 -3 -5 -12 8 -115 -22 -109 -32 3 -4 -8 -6 -25 -5 -16 1 -32 -2 -35 -7 -3 -5 -9 -7 -14 -4 -5 3 -21 0 -37 -7 -15 -6 -43 -11 -61 -9 -21 1 -34 -3 -38 -14 -3 -8 -11 -15 -16 -15 -6 0 -5 6 2 15 15 18 -1 20 -19 3 -11 -10 -13 -10 -7 0 4 7 1 12 -8 12 -9 0 -16 -5 -16 -10 0 -6 -10 -8 -22 -5 -13 3 -42 7 -66 9 -37 4 -41 2 -31 -10 7 -9 21 -20 32 -26 15 -8 18 -7 11 4 -7 11 -5 11 9 0 9 -8 21 -11 26 -7 7 3 8 0 5 -9 -3 -9 -1 -16 6 -16 6 0 8 -5 4 -12 -5 -9 -2 -8 9 1 15 12 17 12 11 -4 -5 -12 -4 -16 4 -11 6 3 28 -9 49 -28 21 -19 45 -41 53 -48 9 -7 37 -32 63 -55 37 -32 54 -40 75 -37 23 3 24 3 9 -7 -17 -10 -16 -12 10 -37 15 -15 32 -25 37 -24 5 2 6 -4 3 -12 -4 -9 4 -21 18 -30 31 -20 36 -20 29 2 -5 14 -4 14 4 2 8 -10 8 -18 0 -27 -8 -11 -7 -12 7 -7 13 5 16 3 13 -7 -7 -20 10 -49 28 -49 8 0 12 -5 9 -11 -4 -6 3 -21 16 -35 17 -18 25 -21 31 -12 6 8 7 5 3 -9 -4 -14 -2 -24 4 -24 26 -3 30 -4 36 -11 4 -4 4 -12 0 -18 -5 -8 -11 -7 -23 2 -8 7 -1 -7 16 -31 18 -24 32 -51 33 -60 0 -12 3 -11 10 4 8 18 9 18 7 -5 -2 -41 24 -112 36 -100 8 8 7 14 -4 21 -13 9 -13 10 0 6 16 -4 23 -47 8 -47 -5 0 -4 -9 2 -19 5 -11 15 -42 21 -70 7 -34 15 -49 22 -44 8 5 8 2 0 -9 -7 -8 -9 -18 -5 -22 4 -4 8 -12 8 -17 1 -5 2 -13 3 -19 0 -5 9 -10 19 -10 14 0 15 -2 2 -10 -13 -9 -7 -14 12 -11 4 0 5 -5 2 -13 -3 -7 2 -16 10 -19 9 -4 16 -12 16 -19 0 -7 12 -27 28 -43 15 -16 28 -33 28 -37 1 -5 2 -11 3 -14 0 -4 8 -1 16 6 12 10 14 8 11 -7 -2 -10 3 -27 11 -38 15 -19 15 -19 8 3 -10 33 1 27 14 -8 8 -24 7 -29 -2 -25 -7 4 2 -6 18 -21 17 -15 30 -30 30 -33 0 -3 7 -6 16 -5 9 1 16 -5 16 -12 0 -7 -4 -11 -9 -8 -15 9 -8 -6 11 -25 14 -14 21 -16 25 -8 2 7 4 1 3 -13 -1 -18 2 -24 13 -22 8 2 12 0 8 -3 -9 -9 19 -65 32 -65 6 0 10 -7 10 -16 0 -8 3 -13 8 -11 4 3 13 -1 20 -9 7 -8 8 -14 3 -14 -6 0 2 -12 16 -27 14 -16 30 -27 35 -25 6 2 8 -5 4 -14 -8 -20 12 -47 27 -37 5 3 7 2 4 -3 -3 -6 -2 -16 3 -24 11 -17 40 -22 40 -7 0 7 4 6 10 -3 5 -9 6 -18 0 -24 -14 -14 14 -60 69 -113 13 -13 20 -23 16 -23 -4 0 -2 -7 5 -15 7 -8 17 -12 24 -8 6 3 8 3 4 -2 -13 -14 11 -45 30 -38 14 6 15 4 5 -9 -11 -12 -9 -20 12 -44 14 -16 25 -32 25 -36 0 -5 5 -7 12 -5 11 2 13 -2 17 -34 0 -6 7 -9 15 -6 10 4 13 0 11 -14 -3 -15 0 -19 11 -15 9 3 12 1 9 -4 -3 -6 -1 -10 5 -10 6 0 9 -4 5 -9 -3 -5 4 -16 15 -24 11 -7 17 -17 14 -20 -4 -4 6 -11 22 -17 21 -8 178 -10 539 -5 l510 5 1 24 c1 22 -3 23 -65 25 -47 1 -62 -1 -51 -9 23 -15 3 -12 -30 5 -18 9 -31 11 -35 5 -3 -6 -1 -10 6 -10 7 0 10 -3 6 -6 -10 -10 -48 7 -41 18 4 7 2 8 -5 4 -18 -11 -61 -15 -55 -5 3 5 13 9 22 9 10 1 4 6 -13 14 -17 8 -35 10 -41 5 -14 -11 -24 -1 -18 16 3 8 -7 15 -31 19 -22 5 -33 11 -29 18 4 7 3 8 -4 4 -6 -4 -21 3 -33 15 -14 14 -29 19 -45 16 -18 -3 -22 -1 -14 8 11 13 -11 40 -23 28 -4 -3 -9 2 -13 11 -3 9 -10 13 -15 10 -5 -3 -6 -10 -3 -16 4 -7 2 -8 -4 -4 -6 4 -9 13 -6 20 3 7 -2 19 -11 26 -8 7 -15 9 -15 5 0 -3 -12 8 -26 25 -15 17 -29 29 -31 26 -2 -2 -20 12 -39 32 -19 21 -33 33 -32 27 2 -5 -2 -10 -7 -10 -5 0 -9 4 -7 9 4 12 -31 36 -42 29 -5 -4 -6 -1 -2 5 4 6 14 8 24 5 9 -3 15 -4 12 -2 -3 2 -20 18 -39 34 -19 17 -31 25 -28 19 4 -7 -1 -18 -11 -25 -15 -12 -16 -12 -6 1 7 9 8 23 4 35 -8 23 -40 53 -40 39 0 -5 -9 6 -20 24 -11 18 -25 30 -30 27 -5 -3 -8 0 -5 7 7 17 -60 92 -74 84 -6 -4 -9 -1 -6 6 7 19 -32 61 -47 52 -8 -5 -7 -1 2 11 8 10 10 16 4 12 -7 -4 -14 2 -17 13 -3 11 -11 20 -19 20 -11 0 -11 -2 1 -9 8 -5 9 -11 3 -15 -13 -8 -26 10 -17 24 7 11 -62 120 -77 120 -5 0 -6 -6 -2 -12 4 -7 3 -10 -1 -5 -5 4 -10 18 -12 30 -2 12 -11 28 -20 34 -9 7 -13 13 -7 13 5 0 4 4 -2 8 -6 4 -27 29 -47 55 -21 27 -37 43 -37 36 0 -10 -3 -10 -12 -1 -10 10 -10 15 -1 20 8 5 6 14 -9 32 -11 14 -16 19 -12 11 5 -9 3 -12 -4 -7 -7 4 -12 14 -12 21 0 8 -6 23 -14 32 -42 51 -86 114 -86 123 0 5 -11 21 -25 36 -14 15 -25 32 -25 39 0 7 -11 20 -25 29 -14 9 -23 21 -20 26 3 5 -6 21 -20 36 -14 15 -25 30 -25 34 0 4 -8 7 -17 6 -17 -1 -19 3 -22 39 0 8 -6 15 -12 15 -5 0 -7 -6 -3 -12 5 -9 2 -9 -9 1 -9 7 -17 19 -17 25 0 6 4 5 9 -3 7 -10 10 -10 16 -1 4 7 4 15 -1 19 -5 3 -17 19 -27 34 -10 15 -22 25 -28 22 -5 -4 -9 -3 -8 2 4 23 -2 43 -13 41 -7 -2 -12 4 -13 12 -1 8 -7 14 -14 12 -7 -1 -10 2 -7 6 9 15 -55 104 -70 98 -7 -3 -11 0 -9 7 6 15 -5 31 -29 44 -11 6 -21 18 -22 27 -1 10 2 13 9 9 7 -3 1 6 -12 20 -13 15 -28 24 -32 21 -5 -3 -9 4 -9 14 0 11 -7 23 -16 26 -9 3 -12 11 -8 18 4 7 -2 5 -13 -5 -14 -12 -23 -15 -28 -8 -6 10 0 15 17 13 10 -2 18 27 9 32 -5 3 -6 16 -4 29 4 18 12 24 41 25 20 2 42 8 49 13 6 6 16 8 22 5 12 -8 111 13 111 24 0 4 8 6 19 3 10 -3 22 1 27 8 5 9 2 10 -12 5 -10 -4 -15 -3 -10 1 9 10 56 12 50 2 -2 -4 17 -1 44 7 26 8 49 19 50 24 2 6 8 8 13 4 5 -3 9 -1 9 4 0 6 8 8 18 6 9 -2 28 5 42 17 14 11 19 18 13 14 -7 -3 -13 -1 -13 5 0 7 7 9 16 6 9 -4 24 -1 32 6 13 11 14 11 7 -1 -6 -10 -2 -10 16 2 13 10 24 23 24 30 0 6 9 12 20 12 11 -1 24 5 28 12 5 8 12 11 17 8 5 -3 12 0 16 6 4 7 3 9 -4 5 -6 -3 -13 -2 -17 4 -4 6 5 10 22 10 30 1 67 23 56 33 -3 4 1 7 9 7 19 0 131 118 154 161 8 17 13 36 11 43 -3 7 1 13 8 13 7 0 11 -7 8 -16 -3 -10 0 -9 8 3 6 11 12 28 13 38 1 10 5 18 9 17 12 -1 36 34 31 43 -2 4 0 9 6 13 5 3 10 11 10 17 0 6 -5 7 -13 2 -7 -5 -6 -2 4 6 15 15 39 61 53 103 3 10 0 17 -7 17 -8 0 -8 3 2 9 9 6 11 18 6 39 -4 18 -2 39 5 49 9 15 10 12 5 -17 -4 -25 -2 -31 6 -23 6 6 11 43 12 82 1 39 5 71 8 71 10 0 8 70 -2 98 -6 15 -5 21 1 17 9 -6 8 31 -4 90 -13 70 -19 111 -18 119 2 4 -1 13 -6 20 -6 6 -13 26 -17 45 -4 19 -15 42 -25 50 -10 9 -21 30 -24 46 -5 22 -4 26 4 15 15 -23 12 -3 -5 31 -9 17 -21 27 -27 23 -7 -4 -8 -3 -4 4 4 7 2 12 -5 12 -7 0 -10 3 -6 6 3 3 1 19 -5 35 -8 23 -13 27 -23 19 -11 -9 -12 -7 -8 9 5 20 -31 66 -46 57 -4 -3 -8 1 -8 9 0 8 4 12 9 9 4 -3 5 2 2 10 -3 9 -12 16 -19 16 -8 0 -17 5 -21 12 -5 7 -2 9 7 3 8 -4 -1 7 -18 24 -18 18 -33 37 -33 42 0 6 -4 8 -9 5 -5 -3 -15 2 -22 11 -12 14 -12 16 1 8 9 -5 12 -5 7 1 -5 5 -13 10 -18 10 -5 1 -12 3 -16 4 -5 1 -15 3 -23 4 -8 0 -16 7 -16 14 -1 6 -2 17 -3 22 0 6 -12 8 -25 6 -19 -3 -23 -1 -19 15 5 18 -7 28 -41 33 -8 1 -19 6 -23 11 -4 4 -1 5 7 1 8 -4 4 1 -10 12 -13 11 -28 18 -32 16 -4 -3 -8 0 -8 6 0 6 -4 8 -10 5 -5 -3 -10 -1 -10 5 0 7 -7 9 -16 6 -8 -3 -12 -2 -9 4 3 6 1 10 -6 10 -7 0 -21 8 -32 18 -11 9 -17 11 -13 5 5 -9 -1 -13 -18 -13 -20 0 -24 4 -19 17 4 10 2 14 -5 9 -6 -3 -13 -2 -17 4 -10 16 -35 12 -29 -5 5 -11 2 -13 -9 -9 -9 3 -13 12 -10 20 3 9 -2 14 -16 14 -12 0 -21 4 -21 8 0 5 -33 14 -72 21 -40 7 -81 15 -92 18 -14 4 -16 2 -10 -8 6 -12 5 -12 -8 -1 -13 10 -26 11 -55 3 -34 -9 -36 -9 -19 4 18 14 16 15 -28 15 -28 0 -45 -4 -41 -10 3 -6 -1 -7 -9 -4 -9 3 -13 11 -9 17 3 5 2 7 -4 4 -13 -8 -72 -10 -101 -3 -12 3 -20 1 -17 -3z"/>
<path d="M3856 7695 c-3 -8 -6 -337 -6 -729 l0 -714 31 -16 c26 -13 29 -13 19 -1 -14 16 -3 20 19 6 7 -5 10 -14 7 -20 -7 -10 6 -16 28 -12 4 1 14 -3 22 -10 7 -6 18 -8 23 -5 5 4 13 1 17 -5 4 -8 3 -9 -4 -5 -7 4 -12 5 -12 2 0 -2 14 -12 31 -20 24 -12 35 -13 45 -5 13 10 18 6 15 -13 -1 -7 52 -39 64 -38 27 1 37 -1 32 -6 -4 -4 24 -22 61 -40 37 -18 72 -37 77 -42 6 -4 13 -9 18 -10 4 -1 20 -8 35 -16 l27 -14 -2 757 c-1 416 -4 768 -7 783 -5 24 -37 46 -59 40 -4 -1 -10 4 -13 12 -3 8 -12 12 -20 9 -8 -3 -12 -8 -10 -12 3 -4 -5 -8 -16 -8 -20 -2 -20 -1 -2 12 18 14 18 15 -3 21 -13 3 -20 11 -16 17 3 5 1 7 -5 3 -5 -3 -12 -1 -14 6 -3 7 -7 5 -11 -6 -4 -10 -3 -15 3 -11 6 3 10 1 10 -4 0 -13 -10 -14 -30 -1 -9 6 -11 10 -3 10 7 0 10 7 7 15 -4 8 -10 13 -14 10 -5 -3 -10 0 -12 6 -2 6 -22 11 -45 12 -23 1 -39 5 -36 10 4 6 -12 11 -30 8 -4 -1 -18 4 -30 11 -12 6 -55 13 -95 14 -40 2 -77 6 -82 9 -4 3 -11 -2 -14 -10z"/>
<path d="M3856 5361 c-3 -5 -5 -321 -4 -703 1 -504 -2 -699 -10 -714 -6 -12 -10 -36 -7 -53 2 -17 -1 -34 -7 -37 -7 -4 -8 -2 -4 4 4 7 4 12 -1 12 -4 0 -21 -21 -38 -45 -16 -25 -34 -45 -38 -45 -5 0 -5 -6 -1 -12 4 -7 4 -10 -1 -6 -12 11 -47 -12 -41 -27 3 -8 -2 -12 -12 -10 -23 4 -113 -46 -105 -58 3 -6 12 -2 20 8 11 16 13 17 13 3 0 -9 5 -20 10 -23 6 -4 9 -1 8 6 -2 6 3 14 10 16 7 3 11 -1 10 -7 -5 -20 93 -42 189 -43 29 0 50 -4 47 -9 -3 -4 4 -8 15 -8 12 0 21 5 21 10 0 6 9 10 20 10 11 0 20 -4 20 -10 0 -5 9 -10 21 -10 11 0 18 4 15 9 -3 5 3 11 14 14 11 3 17 1 14 -4 -3 -6 14 -7 43 -4 77 9 118 21 115 34 -2 8 3 9 14 3 17 -9 66 -4 60 7 -2 3 8 7 23 8 15 1 40 7 56 14 28 10 29 12 10 20 -15 7 -13 8 10 4 35 -6 100 28 89 47 -4 7 -3 8 5 4 6 -4 9 -12 5 -17 -3 -6 5 -5 17 3 13 7 26 14 27 15 2 1 1 11 -3 22 -4 14 -11 18 -23 14 -14 -6 -15 -4 -4 9 12 15 9 57 -7 83 -3 6 -6 13 -7 18 -1 4 -2 8 -4 10 -1 1 -3 9 -5 17 -13 66 -27 100 -38 93 -7 -4 -7 0 2 10 11 13 11 20 1 32 -6 8 -9 18 -6 23 3 5 1 35 -4 68 -5 32 -10 246 -10 476 -1 471 5 440 -80 431 -25 -3 -43 -3 -39 1 3 3 20 6 37 8 33 2 33 2 11 19 -12 9 -34 16 -50 17 -36 1 -52 10 -45 27 5 14 -54 55 -78 55 -8 0 -19 7 -26 15 -7 8 -16 13 -20 10 -4 -3 -10 1 -13 9 -6 14 -96 62 -109 58 -5 -1 -8 3 -8 9 0 7 -11 9 -27 5 -16 -3 -22 -3 -15 0 6 3 12 10 12 15 0 6 -4 7 -10 4 -5 -3 -10 -2 -10 4 0 11 -39 26 -59 22 -7 -1 -10 2 -6 8 3 6 4 11 1 11 -3 0 -7 -4 -10 -9z"/>
<path d="M681 2378 c0 -13 4 -32 8 -43 5 -11 4 -25 -1 -32 -6 -8 -6 -18 2 -30 10 -16 10 -15 5 5 -4 12 -4 22 0 22 3 0 10 -10 16 -22 17 -39 36 -69 43 -69 12 2 43 -34 38 -44 -3 -5 1 -5 8 2 10 9 22 4 56 -24 24 -19 41 -40 38 -45 -3 -5 -13 -1 -21 9 -11 13 -11 11 1 -9 18 -31 8 -38 -17 -10 -15 17 -17 21 -17 42 0 6 -5 10 -11 10 -5 0 -7 -4 -4 -10 9 -15 -13 -12 -22 3 -5 6 -24 26 -43 42 l-35 30 30 -33 c17 -19 61 -59 98 -90 58 -47 66 -57 52 -65 -14 -8 -15 -11 -4 -18 11 -7 9 -13 -11 -30 l-25 -20 33 16 c27 13 31 19 21 31 -6 8 -10 14 -8 15 16 3 36 7 49 10 8 2 14 -1 13 -8 -2 -7 6 -17 18 -23 15 -9 18 -15 10 -24 -13 -16 -4 -27 15 -19 8 3 14 0 14 -6 0 -6 7 -11 15 -11 9 0 15 -9 15 -22 -1 -23 -1 -23 -16 -3 -16 20 -16 20 -10 -1 4 -14 1 -28 -9 -37 -11 -12 -12 -17 -2 -21 20 -8 -30 -45 -53 -39 -16 4 -18 8 -9 20 10 11 14 11 20 1 5 -7 9 -8 9 -2 0 20 -13 24 -30 9 -10 -9 -46 -31 -81 -50 -35 -19 -58 -35 -51 -35 7 0 10 -4 7 -10 -3 -6 1 -7 10 -3 12 4 13 8 5 13 -8 5 -6 9 6 14 10 4 21 1 27 -6 6 -10 7 -9 4 4 -4 9 1 19 10 22 21 9 31 -3 13 -14 -13 -9 -13 -10 0 -10 8 -1 -1 -9 -20 -20 -52 -28 -27 -24 31 5 67 35 131 97 122 121 -4 11 -3 15 5 10 6 -3 13 3 17 14 7 22 -2 60 -13 58 -13 -2 -42 14 -37 22 3 4 -2 13 -10 20 -8 7 -15 17 -15 23 0 6 12 0 27 -14 22 -19 24 -20 10 -2 -22 25 -25 23 101 74 53 21 87 38 74 39 -12 0 -41 -9 -64 -21 -29 -15 -43 -18 -51 -10 -8 8 -5 11 9 12 10 0 14 3 7 5 -12 5 -117 -36 -110 -42 2 -3 20 3 40 11 43 18 47 18 47 4 0 -5 -4 -7 -10 -4 -5 3 -10 1 -10 -4 0 -6 -3 -10 -7 -9 -5 1 -20 -4 -34 -11 -28 -14 -11 -27 -190 144 -46 44 -78 72 -70 62 8 -10 11 -20 7 -24 -3 -4 -13 2 -20 13 -11 14 -11 22 -3 32 8 10 7 12 -3 10 -19 -4 -40 40 -40 85 0 20 -4 37 -10 37 -5 0 -10 -10 -9 -22z"/>
</g>
</svg>
